<?xml version="1.0" encoding="utf-8"?>
<!-- Generator: Adobe Illustrator 16.0.0, SVG Export Plug-In . SVG Version: 6.00 Build 0)  -->
<!DOCTYPE svg PUBLIC "-//W3C//DTD SVG 1.1//EN" "http://www.w3.org/Graphics/SVG/1.1/DTD/svg11.dtd">
<svg version="1.1" id="Layer_1" xmlns="http://www.w3.org/2000/svg" xmlns:xlink="http://www.w3.org/1999/xlink" x="0px" y="0px"
	 width="53.399px" height="52.455px" viewBox="-67.796 1.328 53.399 52.455" enable-background="new -67.796 1.328 53.399 52.455"
	 xml:space="preserve">
<g>
	<path fill="none" d="M-23.42,34.137c-2.805-0.415-5.618-0.781-8.414-1.248c-0.77-0.129-0.88,0.153-0.979,0.777
		c-0.473,2.963-2.134,4.942-5.026,5.799c-3.947,1.17-7.979-0.524-9.935-4.145c-1.316-2.438-1.671-5.088-1.688-8.501
		c-0.027-1.128,0.153-2.93,0.65-4.682c0.84-2.961,2.351-5.436,5.461-6.418c2.844-0.898,5.627-0.789,8.001,1.311
		c1.19,1.053,1.818,2.468,2.177,3.999c0.086,0.368,0.16,0.629,0.657,0.529c2.924-0.586,5.852-1.153,8.781-1.706
		c0.383-0.072,0.468-0.177,0.371-0.572c-1.199-4.896-4.025-8.487-8.616-10.591c-3.745-1.716-7.715-1.918-11.723-1.325
		c-6.722,0.994-11.538,4.559-13.985,10.966c-2.386,6.246-2.257,12.563,0.141,18.78c1.698,4.401,4.738,7.606,9.176,9.377
		c4.138,1.649,8.418,1.914,12.767,1.161c3.202-0.555,6.072-1.837,8.39-4.201c2.402-2.451,3.573-5.504,4.348-8.76
		C-22.742,34.17-23.129,34.18-23.42,34.137z"/>
	<g>
		<path fill="none" d="M-23.42,34.137c-2.805-0.415-5.618-0.781-8.414-1.248c-0.77-0.129-0.88,0.153-0.979,0.777
			c-0.473,2.963-2.134,4.942-5.026,5.799c-3.947,1.17-7.979-0.524-9.935-4.145c-1.316-2.438-1.671-5.088-1.688-8.501
			c-0.027-1.128,0.153-2.93,0.65-4.682c0.84-2.961,2.351-5.436,5.461-6.418c2.844-0.898,5.627-0.789,8.001,1.311
			c1.19,1.053,1.818,2.468,2.177,3.999c0.086,0.368,0.16,0.629,0.657,0.529c2.924-0.586,5.852-1.153,8.781-1.706
			c0.383-0.072,0.468-0.177,0.371-0.572c-1.199-4.896-4.025-8.487-8.616-10.591c-3.745-1.716-7.715-1.918-11.723-1.325
			c-6.722,0.994-11.538,4.559-13.985,10.966c-2.386,6.246-2.257,12.563,0.141,18.78c1.698,4.401,4.738,7.606,9.176,9.377
			c4.138,1.649,8.418,1.914,12.767,1.161c3.202-0.555,6.072-1.837,8.39-4.201c2.402-2.451,3.573-5.504,4.348-8.76
			C-22.742,34.17-23.129,34.18-23.42,34.137z"/>
		<path fill="#A5A4A4" d="M-15.517,1.328c-17.012,0-34.023,0-51.035,0c-1.045,0-1.14,0.091-1.243,1.16
			c0.008,0.293,0.022,0.586,0.022,0.88c0.001,16.418,0.001,32.837,0.005,49.256c0,0.334-0.092,0.689,0.144,0.992
			c0.324,0.121,0.655,0.166,1.004,0.166c17.118-0.005,34.236-0.005,51.354-0.006c0.221,0,0.44-0.013,0.66-0.021
			c0.184-0.363,0.174-0.753,0.173-1.146c-0.002-16.466-0.002-32.931,0-49.397c0-0.292,0.024-0.585,0.037-0.877
			C-14.485,1.371-14.529,1.328-15.517,1.328z M-22.865,34.687c-0.774,3.256-1.945,6.309-4.348,8.76
			c-2.317,2.364-5.188,3.646-8.39,4.201c-4.349,0.753-8.629,0.488-12.767-1.161c-4.438-1.771-7.479-4.976-9.176-9.377
			c-2.398-6.217-2.527-12.534-0.141-18.78c2.448-6.407,7.263-9.972,13.985-10.966c4.008-0.593,7.978-0.391,11.723,1.325
			c4.591,2.104,7.417,5.695,8.616,10.591c0.097,0.395,0.012,0.5-0.371,0.572c-2.93,0.553-5.857,1.12-8.781,1.706
			c-0.497,0.1-0.571-0.162-0.657-0.529c-0.358-1.531-0.986-2.946-2.177-3.999c-2.374-2.1-5.157-2.209-8.001-1.311
			c-3.111,0.982-4.622,3.457-5.461,6.418c-0.497,1.751-0.677,3.553-0.65,4.682c0.017,3.414,0.372,6.064,1.688,8.501
			c1.955,3.62,5.987,5.314,9.935,4.145c2.893-0.856,4.554-2.836,5.026-5.799c0.099-0.624,0.209-0.906,0.979-0.777
			c2.796,0.467,5.609,0.833,8.414,1.248C-23.129,34.18-22.742,34.17-22.865,34.687z M-17.801,7.826h-0.84l-0.3,1.272h0.828
			l-0.288,1.14h-0.816l-0.432,1.848h-1.284l0.432-1.848h-1.068L-22,12.086h-1.284l0.432-1.848h-0.888l0.264-1.14h0.9l0.3-1.272
			h-0.864l0.264-1.14H-22l0.42-1.728h1.272l-0.408,1.728h1.068l0.42-1.728h1.272l-0.408,1.728h0.864L-17.801,7.826z"/>
		<polygon fill="#A5A4A4" points="-21.292,9.098 -20.224,9.098 -19.925,7.826 -20.992,7.826 		"/>
	</g>
</g>
</svg>
