<?xml version="1.0" encoding="utf-8"?>
<!-- Generator: Adobe Illustrator 16.0.0, SVG Export Plug-In . SVG Version: 6.00 Build 0)  -->
<!DOCTYPE svg PUBLIC "-//W3C//DTD SVG 1.1//EN" "http://www.w3.org/Graphics/SVG/1.1/DTD/svg11.dtd">
<svg version="1.1" id="Layer_1" xmlns="http://www.w3.org/2000/svg" xmlns:xlink="http://www.w3.org/1999/xlink" x="0px" y="0px"
	 width="53.399px" height="52.455px" viewBox="-67.796 1.328 53.399 52.455" enable-background="new -67.796 1.328 53.399 52.455"
	 xml:space="preserve">
<g id="lCCz6I_1_">
	<g>
		<path fill-rule="evenodd" clip-rule="evenodd" fill="#FFFFFF" d="M-67.624,53.617c-0.236-0.303-0.144-0.658-0.144-0.992
			c-0.004-16.419-0.003-32.838-0.005-49.256c0-0.293-0.015-0.586-0.022-0.88c0.103-1.069,0.198-1.16,1.243-1.16
			c17.012,0,34.023,0,51.035,0c0.988,0,1.032,0.042,1.121,1.008c-0.013,0.292-0.037,0.585-0.037,0.877
			c-0.002,16.466-0.002,32.931,0,49.397c0.001,0.393,0.011,0.782-0.173,1.146c-0.22,0.008-0.439,0.021-0.66,0.021
			c-17.118,0.001-34.236,0.001-51.354,0.006C-66.969,53.783-67.301,53.738-67.624,53.617z M-49.461,26.82
			c-0.027-1.128,0.153-2.93,0.65-4.682c0.84-2.961,2.351-5.436,5.461-6.418c2.844-0.898,5.627-0.789,8.001,1.311
			c1.19,1.053,1.818,2.468,2.177,3.999c0.086,0.368,0.16,0.629,0.657,0.529c2.924-0.586,5.852-1.153,8.781-1.706
			c0.383-0.072,0.468-0.177,0.371-0.572c-1.199-4.896-4.025-8.487-8.616-10.591c-3.745-1.716-7.715-1.918-11.723-1.325
			c-6.722,0.994-11.538,4.559-13.985,10.966c-2.386,6.246-2.257,12.563,0.141,18.78c1.698,4.401,4.738,7.606,9.176,9.377
			c4.138,1.649,8.418,1.914,12.767,1.161c3.202-0.555,6.072-1.837,8.39-4.201c2.402-2.451,3.573-5.504,4.348-8.76
			c0.123-0.518-0.264-0.507-0.555-0.55c-2.805-0.415-5.618-0.781-8.414-1.248c-0.77-0.129-0.88,0.153-0.979,0.777
			c-0.473,2.963-2.134,4.942-5.026,5.799c-3.947,1.17-7.979-0.524-9.935-4.145C-49.09,32.884-49.444,30.233-49.461,26.82z"/>
	</g>
</g>
</svg>
