<?xml version="1.0" encoding="utf-8"?>
<!-- Generator: Adobe Illustrator 16.0.0, SVG Export Plug-In . SVG Version: 6.00 Build 0)  -->
<!DOCTYPE svg PUBLIC "-//W3C//DTD SVG 1.1//EN" "http://www.w3.org/Graphics/SVG/1.1/DTD/svg11.dtd">
<svg version="1.1" id="Layer_1" xmlns="http://www.w3.org/2000/svg" xmlns:xlink="http://www.w3.org/1999/xlink" x="0px" y="0px"
	 width="19.767px" height="33.834px" viewBox="-121 24 19.767 33.834" enable-background="new -121 24 19.767 33.834"
	 xml:space="preserve">
<g>
	<g>
		<defs>
			<path id="SVGID_1_" d="M-679-131.018v25.87c0,1.115,0.914,2.121,2.036,2.244l15.694,1.727c1.125,0.124,2.037-0.811,2.037-2.09
				v-29.632c0-1.278-0.914-2.214-2.037-2.091l-15.694,1.727C-678.088-133.139-679-132.135-679-131.018z"/>
		</defs>
		<clipPath id="SVGID_2_">
			<use xlink:href="#SVGID_1_"  overflow="visible"/>
		</clipPath>
		<g clip-path="url(#SVGID_2_)">
			<path fill="#FFFFFF" d="M-661.071-97.166L-661.071-97.166c-0.21,0-0.423-0.012-0.638-0.035l-15.693-1.727
				c-3.139-0.344-5.599-3.076-5.599-6.22v-25.87c0-3.142,2.459-5.875,5.598-6.221l15.695-1.727c3.602-0.39,6.474,2.428,6.474,6.067
				v29.632c0,1.554-0.544,3.026-1.531,4.146C-657.859-97.878-659.429-97.166-661.071-97.166z M-675-106.711l11.767,1.294v-25.332
				L-675-129.455V-106.711z"/>
		</g>
	</g>
</g>
<g>
	<g>
		<defs>
			<path id="SVGID_3_" d="M-121,27.982v25.87c0,1.115,0.914,2.121,2.036,2.244l15.694,1.727c1.125,0.124,2.037-0.811,2.037-2.09
				V26.102c0-1.278-0.914-2.214-2.037-2.091l-15.694,1.727C-120.088,25.861-121,26.865-121,27.982z"/>
		</defs>
		<clipPath id="SVGID_4_">
			<use xlink:href="#SVGID_3_"  overflow="visible"/>
		</clipPath>
		<g clip-path="url(#SVGID_4_)">
			<path fill="#FFFFFF" d="M-103.071,61.834L-103.071,61.834c-0.21,0-0.423-0.012-0.638-0.035l-15.693-1.727
				c-3.139-0.344-5.599-3.076-5.599-6.22v-25.87c0-3.143,2.459-5.875,5.598-6.221l15.695-1.727c3.602-0.39,6.474,2.428,6.474,6.067
				v29.632c0,1.554-0.544,3.026-1.531,4.146C-99.859,61.122-101.429,61.834-103.071,61.834z M-117,52.289l11.767,1.294V28.251
				L-117,29.545V52.289z"/>
		</g>
	</g>
</g>
</svg>
