<?xml version="1.0" encoding="utf-8"?>
<!-- Generator: Adobe Illustrator 16.0.0, SVG Export Plug-In . SVG Version: 6.00 Build 0)  -->
<!DOCTYPE svg PUBLIC "-//W3C//DTD SVG 1.1//EN" "http://www.w3.org/Graphics/SVG/1.1/DTD/svg11.dtd">
<svg version="1.1" id="Layer_1" xmlns="http://www.w3.org/2000/svg" xmlns:xlink="http://www.w3.org/1999/xlink" x="0px" y="0px"
	 width="64.258px" height="58.023px" viewBox="0 0 64.258 58.023" enable-background="new 0 0 64.258 58.023" xml:space="preserve">
<g id="pFs50m_1_">
	<g>
		<path fill="#FFFFFF" d="M0,48.373c0.828-4.154,1.641-8.272,2.49-12.385c0.044-0.217,0.388-0.531,0.594-0.533
			c3.353-0.027,6.707-0.013,10.06-0.004c0.053,0,0.105,0.044,0.229,0.098c-0.33,1.704-0.664,3.425-1.015,5.228
			c1.156,0.446,2.298,0.89,3.441,1.326c3.702,1.415,7.401,2.843,11.118,4.22c0.447,0.165,1.047,0.183,1.5,0.035
			c5.39-1.747,10.765-3.541,16.146-5.313c0.47-0.153,0.784-0.313,0.896-0.9c0.693-3.665,1.447-7.319,2.176-10.979
			c0.033-0.167,0.004-0.346,0.004-0.605c-14.561,0-29.109,0-43.766,0c0.728-3.662,1.435-7.219,2.154-10.838
			c14.632,0,29.214,0,43.871,0c0.461-2.312,0.909-4.563,1.386-6.948c-14.688,0-29.23,0-43.873,0C8.138,7.114,8.839,3.581,9.552,0
			c18.226,0,36.421,0,54.707,0c-0.424,2.151-0.84,4.275-1.262,6.398c-2.744,13.77-5.492,27.538-8.213,41.311
			c-0.109,0.55-0.334,0.779-0.84,0.947c-9.312,3.082-18.619,6.186-27.935,9.266c-0.333,0.11-0.771,0.146-1.087,0.025
			c-8.232-3.131-16.456-6.287-24.68-9.44C0.188,48.486,0.141,48.451,0,48.373z"/>
	</g>
</g>
</svg>
