<?xml version="1.0" encoding="utf-8"?>
<!-- Generator: Adobe Illustrator 16.0.0, SVG Export Plug-In . SVG Version: 6.00 Build 0)  -->
<!DOCTYPE svg PUBLIC "-//W3C//DTD SVG 1.1//EN" "http://www.w3.org/Graphics/SVG/1.1/DTD/svg11.dtd">
<svg version="1.1" id="Layer_1" xmlns="http://www.w3.org/2000/svg" xmlns:xlink="http://www.w3.org/1999/xlink" x="0px" y="0px"
	 width="64.258px" height="58.023px" viewBox="22.524 0 64.258 58.023" enable-background="new 22.524 0 64.258 58.023"
	 xml:space="preserve">
<g id="pFs50m_1_">
	<g>
		<path fill-rule="evenodd" clip-rule="evenodd" fill="#A5A4A4" d="M22.524,48.373c0.828-4.154,1.641-8.273,2.49-12.385
			c0.044-0.217,0.388-0.531,0.594-0.533c3.353-0.027,6.707-0.013,10.06-0.004c0.053,0,0.106,0.044,0.229,0.098
			c-0.331,1.704-0.665,3.424-1.015,5.227c1.156,0.446,2.297,0.89,3.441,1.326c3.703,1.415,7.401,2.843,11.118,4.22
			c0.448,0.165,1.048,0.183,1.501,0.035c5.389-1.747,10.764-3.541,16.145-5.313c0.469-0.154,0.784-0.314,0.896-0.901
			c0.693-3.665,1.447-7.319,2.175-10.978c0.033-0.167,0.004-0.346,0.004-0.606c-14.561,0-29.109,0-43.766,0
			c0.728-3.662,1.435-7.218,2.154-10.838c14.631,0,29.213,0,43.871,0c0.461-2.311,0.909-4.563,1.385-6.948
			c-14.688,0-29.23,0-43.872,0C30.662,7.114,31.364,3.581,32.076,0c18.226,0,36.421,0,54.707,0c-0.424,2.151-0.84,4.275-1.262,6.398
			c-2.743,13.77-5.491,27.538-8.213,41.311c-0.109,0.55-0.333,0.779-0.839,0.947c-9.313,3.082-18.62,6.186-27.935,9.266
			c-0.333,0.11-0.771,0.146-1.087,0.025c-8.232-3.131-16.456-6.287-24.68-9.44C22.713,48.486,22.665,48.451,22.524,48.373z"/>
	</g>
</g>
</svg>
