<?xml version="1.0" encoding="UTF-8" standalone="no"?>
<svg width="21px" height="21px" viewBox="0 0 21 21" version="1.1" xmlns="http://www.w3.org/2000/svg" xmlns:xlink="http://www.w3.org/1999/xlink" xmlns:sketch="http://www.bohemiancoding.com/sketch/ns">
    <!-- Generator: Sketch 3.0.4 (8053) - http://www.bohemiancoding.com/sketch -->
    <title>gear-icon</title>
    <desc>Created with Sketch.</desc>
    <defs></defs>
    <g id="Page-1" stroke="none" stroke-width="1" fill="none" fill-rule="evenodd" sketch:type="MSPage">
        <g id="gear-icon" sketch:type="MSLayerGroup" fill="#5ABACE">
            <g id="Welcome" sketch:type="MSShapeGroup">
                <g id="Collection-View">
                    <g id="Gear-Icon">
                        <path d="M12.9590539,2.84012713 C12.5491499,1.58064343 12.2263853,0.714742284 12.2263853,0.714742284 C12.0844925,0.320001021 11.6262032,0 11.1988569,0 L9.74770794,0 C9.32211251,0 8.8641538,0.3148625 8.72027701,0.725219564 C8.72027701,0.725219564 8.41133869,1.56557516 8.01646231,2.79593251 C7.59529908,2.92878635 7.18916398,3.09563014 6.80125674,3.29325595 C5.64899657,2.70080409 4.83377015,2.32362786 4.83377015,2.32362786 C4.45736716,2.14407745 3.90950903,2.24124631 3.60732961,2.54342572 L2.58121231,3.56954302 C2.28027089,3.87048444 2.18522839,4.4360318 2.36188266,4.81025746 C2.36188266,4.81025746 2.72913714,5.62105635 3.30998635,6.76948861 C3.10492468,7.16722239 2.93209275,7.58436619 2.7949546,8.01744713 C1.55782984,8.41425717 0.711803862,8.72505977 0.711803862,8.72505977 C0.318685444,8.86425556 0,9.32035852 0,9.74770475 L0,11.1988537 C0,11.6244492 0.332697173,12.0915568 0.722228111,12.2312608 C0.722228111,12.2312608 1.57549593,12.5525215 2.82253254,12.9608266 C2.96223526,13.3853344 3.13634862,13.7941569 3.34156197,14.1839752 C2.7426987,15.3610271 2.36003913,16.1984856 2.36003913,16.1984856 C2.18124829,16.5779432 2.2790329,17.1282776 2.58121231,17.430457 L3.60732961,18.4565743 C3.90827103,18.7575157 4.45473815,18.8587 4.84664066,18.67027 C4.84664066,18.67027 5.70625644,18.2727958 6.90751047,17.6527391 C7.25155213,17.8215977 7.60946722,17.9664221 7.97907917,18.0850304 C8.39403982,19.3871284 8.72506296,20.2881961 8.72506296,20.2881961 C8.86425875,20.6813146 9.32036171,21 9.74770794,21 L11.1988569,21 C11.6244524,21 12.09156,20.6673028 12.231264,20.2777719 C12.231264,20.2777719 12.5768948,19.3597771 13.0067903,18.0365507 C13.3680449,17.9128278 13.7176537,17.7639112 14.0535317,17.5918912 C15.2986682,18.2288064 16.1984833,18.6399586 16.1984833,18.6399586 C16.5779409,18.8187495 17.1282753,18.7209648 17.4304547,18.4187854 L18.456572,17.3926681 C18.7575134,17.0917267 18.8586977,16.5452596 18.6702677,16.1533571 C18.6702677,16.1533571 18.2494233,15.2431985 17.5982752,13.9872072 C17.7528765,13.6727718 17.8875285,13.3467078 18.0005747,13.0106762 C19.3457661,12.5765776 20.2852577,12.2263821 20.2852577,12.2263821 C20.679999,12.0844893 21,11.6262 21,11.1988537 L21,9.74770475 C21,9.32210931 20.6851375,8.8641506 20.2747804,8.72027382 C20.2747804,8.72027382 19.3527155,8.38129685 18.0261943,7.95964551 C17.9143801,7.61566309 17.7799969,7.28189967 17.6247977,6.96011275 C18.2641961,5.72464238 18.6763699,4.83377241 18.6763699,4.83377241 C18.8559203,4.45736942 18.7587514,3.90951129 18.456572,3.60733187 L17.4304547,2.58121457 C17.1295133,2.28027315 16.5639659,2.18523065 16.1897403,2.36188492 C16.1897403,2.36188492 15.3406692,2.74647493 14.1495872,3.35098799 C13.7698079,3.14992056 13.3719347,2.97860224 12.9590539,2.84012713 L12.9590539,2.84012713 L12.9590539,2.84012713 Z M10.5267176,14.6785714 C12.8286067,14.6785714 14.6946565,12.8077613 14.6946565,10.5 C14.6946565,8.19223872 12.8286067,6.32142857 10.5267176,6.32142857 C8.22482845,6.32142857 6.35877863,8.19223872 6.35877863,10.5 C6.35877863,12.8077613 8.22482845,14.6785714 10.5267176,14.6785714 L10.5267176,14.6785714 Z" id="Rectangle-12"></path>
                    </g>
                </g>
            </g>
        </g>
    </g>
</svg>