<?xml version="1.0" encoding="utf-8"?>
<!-- Generator: Adobe Illustrator 16.0.0, SVG Export Plug-In . SVG Version: 6.00 Build 0)  -->
<!DOCTYPE svg PUBLIC "-//W3C//DTD SVG 1.1//EN" "http://www.w3.org/Graphics/SVG/1.1/DTD/svg11.dtd">
<svg version="1.1" id="Layer_1" xmlns="http://www.w3.org/2000/svg" xmlns:xlink="http://www.w3.org/1999/xlink" x="0px" y="0px"
	 width="52.001px" height="51.978px" viewBox="-98.369 1.806 52.001 51.978" enable-background="new -98.369 1.806 52.001 51.978"
	 xml:space="preserve">
<g id="l8yXbu_1_">
	<g>
		<path fill="#FFFFFF" d="M-46.368,27.49c0,0.227,0,0.453,0,0.679c-0.345,1.587-1.574,2.527-2.633,3.588
			c-3.6,3.605-7.204,7.207-10.807,10.81c-3.378,3.379-6.753,6.761-10.138,10.134c-1.394,1.389-3.325,1.457-4.665,0.123
			c-7.542-7.509-15.078-15.025-22.6-22.554c-1.576-1.577-1.531-3.446,0.049-5.026c4.914-4.918,9.831-9.833,14.748-14.748
			c0.171-0.171,0.356-0.327,0.525-0.48c0.117,0.064,0.187,0.084,0.232,0.129c1.781,1.774,3.566,3.543,5.324,5.34
			c0.144,0.146,0.178,0.494,0.128,0.719c-0.411,1.862,0.229,3.543,1.82,4.51c0.42,0.255,0.518,0.541,0.517,0.986
			c-0.012,4.167-0.02,8.333,0.005,12.5c0.004,0.647-0.146,1.051-0.733,1.427c-1.503,0.961-2.099,2.849-1.557,4.542
			c0.533,1.664,2.168,2.851,3.908,2.837c1.7-0.014,3.246-1.146,3.801-2.783c0.567-1.673,0.041-3.464-1.404-4.528
			c-0.421-0.31-0.556-0.629-0.554-1.126c0.016-4.144,0.008-8.288,0.011-12.432c0-0.185,0.03-0.369,0.056-0.667
			c1.547,1.551,2.989,3.02,4.462,4.457c0.417,0.407,0.685,0.749,0.462,1.395c-0.146,0.421-0.087,0.936-0.03,1.398
			c0.264,2.116,2.386,3.724,4.483,3.426c2.364-0.337,3.888-2.462,3.492-4.868c-0.339-2.054-2.593-3.618-4.662-3.178
			c-0.5,0.106-0.799-0.014-1.132-0.351c-1.557-1.581-3.123-3.154-4.71-4.705c-0.333-0.325-0.425-0.634-0.34-1.074
			c0.535-2.757-1.898-5.188-4.662-4.704c-0.285,0.049-0.706-0.03-0.9-0.218c-1.739-1.687-3.436-3.417-5.16-5.12
			c-0.318-0.313-0.312-0.524,0.004-0.831c0.975-0.946,1.927-1.916,2.887-2.877c0.969-0.97,1.85-2.059,3.273-2.413
			c0.317,0,0.634,0,0.951,0c1.524,0.511,2.496,1.727,3.573,2.804c6.374,6.369,12.746,12.74,19.113,19.114
			C-48.106,24.848-46.817,25.852-46.368,27.49z"/>
	</g>
</g>
</svg>
