<?xml version="1.0" encoding="UTF-8" standalone="no"?>
<svg width="29px" height="29px" viewBox="0 0 29 29" version="1.1" xmlns="http://www.w3.org/2000/svg" xmlns:xlink="http://www.w3.org/1999/xlink" xmlns:sketch="http://www.bohemiancoding.com/sketch/ns">
    <!-- Generator: Sketch 3.0.4 (8054) - http://www.bohemiancoding.com/sketch -->
    <title>Group</title>
    <desc>Created with Sketch.</desc>
    <defs></defs>
    <g id="Welcome" stroke="none" stroke-width="1" fill="none" fill-rule="evenodd" sketch:type="MSPage">
        <g id="Collection-View" sketch:type="MSArtboardGroup" transform="translate(-1042.000000, -917.000000)" fill="#FFFFFF">
            <g id="Group" sketch:type="MSLayerGroup" transform="translate(1042.000000, 917.000000)">
                <path d="M0.0615234375,3.13193448 L0.0615234375,10.0623843 C0.0615234375,11.7182143 1.39622363,13.0605297 3.05966886,13.0605297 L9.9901187,13.0605297 C11.6459487,13.0605297 12.9882641,11.7258296 12.9882641,10.0623843 L12.9882641,3.13193448 C12.9882641,1.47610449 11.6535639,0.133789062 9.9901187,0.133789062 L3.05966886,0.133789062 C1.40383886,0.133789062 0.0615234375,1.46848925 0.0615234375,3.13193448 Z M9.9901187,2.13378906 C10.5455774,2.13378906 10.9882641,2.57725385 10.9882641,3.13193448 L10.9882641,10.0623843 C10.9882641,10.617843 10.5447993,11.0605297 9.9901187,11.0605297 L3.05966886,11.0605297 C2.50421017,11.0605297 2.06152344,10.617065 2.06152344,10.0623843 L2.06152344,3.13193448 C2.06152344,2.5764758 2.50498822,2.13378906 3.05966886,2.13378906 L9.9901187,2.13378906 Z" id="Rectangle-70" sketch:type="MSShapeGroup"></path>
                <path d="M0.0615234375,19.0098813 L0.0615234375,25.9403311 C0.0615234375,27.5961611 1.39622363,28.9384766 3.05966886,28.9384766 L9.9901187,28.9384766 C11.6459487,28.9384766 12.9882641,27.6037764 12.9882641,25.9403311 L12.9882641,19.0098813 C12.9882641,17.3540513 11.6535639,16.0117359 9.9901187,16.0117359 L3.05966886,16.0117359 C1.40383886,16.0117359 0.0615234375,17.3464361 0.0615234375,19.0098813 Z M9.9901187,18.0117359 C10.5455774,18.0117359 10.9882641,18.4552007 10.9882641,19.0098813 L10.9882641,25.9403311 C10.9882641,26.4957898 10.5447993,26.9384766 9.9901187,26.9384766 L3.05966886,26.9384766 C2.50421017,26.9384766 2.06152344,26.4950118 2.06152344,25.9403311 L2.06152344,19.0098813 C2.06152344,18.4544226 2.50498822,18.0117359 3.05966886,18.0117359 L9.9901187,18.0117359 Z" id="Rectangle-66" sketch:type="MSShapeGroup"></path>
                <path d="M15.9394703,3.13193448 L15.9394703,10.0623843 C15.9394703,11.7182143 17.2741704,13.0605297 18.9376157,13.0605297 L25.8680655,13.0605297 C27.5238955,13.0605297 28.8662109,11.7258296 28.8662109,10.0623843 L28.8662109,3.13193448 C28.8662109,1.47610449 27.5315107,0.133789062 25.8680655,0.133789062 L18.9376157,0.133789062 C17.2817857,0.133789062 15.9394703,1.46848925 15.9394703,3.13193448 Z M25.8680655,2.13378906 C26.4235242,2.13378906 26.8662109,2.57725385 26.8662109,3.13193448 L26.8662109,10.0623843 C26.8662109,10.617843 26.4227462,11.0605297 25.8680655,11.0605297 L18.9376157,11.0605297 C18.382157,11.0605297 17.9394703,10.617065 17.9394703,10.0623843 L17.9394703,3.13193448 C17.9394703,2.5764758 18.382935,2.13378906 18.9376157,2.13378906 L25.8680655,2.13378906 Z" id="Rectangle-67" sketch:type="MSShapeGroup"></path>
                <path d="M15.9394703,19.0098813 L15.9394703,25.9403311 C15.9394703,27.5961611 17.2741704,28.9384766 18.9376157,28.9384766 L25.8680655,28.9384766 C27.5238955,28.9384766 28.8662109,27.6037764 28.8662109,25.9403311 L28.8662109,19.0098813 C28.8662109,17.3540513 27.5315107,16.0117359 25.8680655,16.0117359 L18.9376157,16.0117359 C17.2817857,16.0117359 15.9394703,17.3464361 15.9394703,19.0098813 Z M25.8680655,18.0117359 C26.4235242,18.0117359 26.8662109,18.4552007 26.8662109,19.0098813 L26.8662109,25.9403311 C26.8662109,26.4957898 26.4227462,26.9384766 25.8680655,26.9384766 L18.9376157,26.9384766 C18.382157,26.9384766 17.9394703,26.4950118 17.9394703,25.9403311 L17.9394703,19.0098813 C17.9394703,18.4544226 18.382935,18.0117359 18.9376157,18.0117359 L25.8680655,18.0117359 Z" id="Rectangle-68" sketch:type="MSShapeGroup"></path>
            </g>
        </g>
    </g>
</svg>