<?xml version="1.0" encoding="utf-8"?>
<!-- Generator: Adobe Illustrator 16.0.0, SVG Export Plug-In . SVG Version: 6.00 Build 0)  -->
<!DOCTYPE svg PUBLIC "-//W3C//DTD SVG 1.1//EN" "http://www.w3.org/Graphics/SVG/1.1/DTD/svg11.dtd">
<svg version="1.1" id="Layer_1" xmlns="http://www.w3.org/2000/svg" xmlns:xlink="http://www.w3.org/1999/xlink" x="0px" y="0px"
	 width="101.329px" height="59.757px" viewBox="-13.77 -20.445 101.329 59.757"
	 enable-background="new -13.77 -20.445 101.329 59.757" xml:space="preserve">
<g id="Z90Wnn_1_">
	<g>
		<path fill-rule="evenodd" clip-rule="evenodd" fill="#A4A4A4" d="M64.558,22.25c-2.579,0-4.973,0-7.645,0
			c0-3.655,0-7.317,0-10.981c-0.165-0.047-0.33-0.095-0.495-0.14c-1.693,2.604-3.388,5.21-5.175,7.957
			c-1.772-2.715-3.45-5.283-5.442-8.335c0,4.136,0,7.734,0,11.468c-2.656,0-5.097,0-7.662,0c0-7.767,0-15.545,0-23.566
			c2.473,0,4.936-0.057,7.389,0.05c0.458,0.021,1.009,0.619,1.308,1.083c1.465,2.293,2.859,4.631,4.473,7.268
			c1.498-2.458,2.921-4.672,4.212-6.961c0.627-1.111,1.376-1.561,2.659-1.476c1.729,0.114,3.475-0.035,5.203,0.078
			c0.412,0.026,1.123,0.637,1.126,0.983C64.573,7.166,64.558,14.656,64.558,22.25z"/>
		<path fill-rule="evenodd" clip-rule="evenodd" fill="#A4A4A4" d="M-13.77-1.274c2.627,0,5.027,0,7.626,0c0,2.526,0,4.978,0,7.583
			c2.503,0,4.812,0,7.323,0c0-2.478,0-4.929,0-7.521c2.64,0,5.084,0,7.713,0c0,7.768,0,15.542,0,23.443c-2.472,0-4.974,0-7.634,0
			c0-2.532,0-4.993,0-7.609c-2.46,0-4.769,0-7.302,0c0,2.533,0,5.042,0,7.64c-2.674,0-5.127,0-7.727,0
			C-13.77,14.435-13.77,6.661-13.77-1.274z"/>
		<path fill-rule="evenodd" clip-rule="evenodd" fill="#A4A4A4" d="M12.751,6.502c0-2.767,0-5.213,0-7.751
			c7.207,0,14.297,0,21.518,0c0,2.547,0,4.992,0,7.709c-2.226,0-4.415,0-6.769,0c0,5.385,0,10.504,0,15.759
			c-2.663,0-5.157,0-7.894,0c0-3.863,0-7.683,0-11.502c0-4.214,0-4.214-4.142-4.216C14.608,6.502,13.75,6.502,12.751,6.502z"/>
		<path fill-rule="evenodd" clip-rule="evenodd" fill="#A4A4A4" d="M87.559,14.543c0,2.703,0,5.152,0,7.707
			c-6.28,0-12.462,0-18.787,0c0-7.771,0-15.548,0-23.466c2.471,0,4.916,0,7.615,0c0,5.167,0,10.335,0,15.759
			C80.24,14.543,83.851,14.543,87.559,14.543z"/>
	</g>
</g>
</svg>
