<?xml version="1.0" encoding="UTF-8" standalone="no"?>
<svg width="27px" height="27px" viewBox="0 0 27 27" version="1.1" xmlns="http://www.w3.org/2000/svg" xmlns:xlink="http://www.w3.org/1999/xlink" xmlns:sketch="http://www.bohemiancoding.com/sketch/ns">
    <!-- Generator: Sketch 3.0.4 (8054) - http://www.bohemiancoding.com/sketch -->
    <title>Oval 34</title>
    <desc>Created with Sketch.</desc>
    <defs></defs>
    <g id="Welcome" stroke="none" stroke-width="1" fill="none" fill-rule="evenodd" sketch:type="MSPage">
        <g id="Collection-View" sketch:type="MSArtboardGroup" transform="translate(-721.000000, -917.000000)" fill="#FFFFFF">
            <path d="M734.5,944 C741.955844,944 748,937.955844 748,930.5 C748,923.044156 741.955844,917 734.5,917 C727.044156,917 721,923.044156 721,930.5 C721,937.955844 727.044156,944 734.5,944 Z M732.730847,936.879158 C732.485886,936.613784 732.363407,936.2489 732.363407,935.784495 C732.363407,935.32009 732.483334,934.687283 732.723192,933.886057 C732.963049,933.084831 733.202903,932.357614 733.442761,931.704385 C733.682618,931.051156 733.802545,930.614826 733.802545,930.395382 C733.802545,930.175938 733.7311,930.066217 733.588206,930.066217 C733.230971,930.066217 732.654301,930.770469 731.858178,932.178994 L730.832409,931.581905 C732.332795,929.050643 733.710679,927.78503 734.966104,927.78503 C735.823467,927.78503 736.252142,928.325977 736.252142,929.407888 C736.252142,929.724296 736.150077,930.22952 735.945943,930.923576 L734.843624,934.077432 C734.73135,934.373426 734.675214,934.641348 734.675214,934.881206 C734.675214,935.121063 734.767073,935.24099 734.950794,935.24099 C735.297822,935.24099 735.935731,934.597978 736.864541,933.311933 L737.50756,933.909022 C736.956398,934.929693 736.300628,935.746217 735.540228,936.358619 C734.779829,936.971021 734.182745,937.277218 733.74896,937.277218 C733.315176,937.277218 732.975808,937.144533 732.730847,936.879158 Z M737.69128,924.386215 C737.415699,924.723036 737.04316,924.891444 736.573652,924.891444 C736.104143,924.891444 735.752017,924.751104 735.517263,924.47042 C735.282509,924.189735 735.165134,923.835058 735.165134,923.406376 C735.165134,922.977694 735.310577,922.5975 735.601468,922.265783 C735.892359,921.934065 736.26745,921.768208 736.726752,921.768208 C737.186053,921.768208 737.530524,921.913652 737.760175,922.204543 C737.989826,922.495434 738.10465,922.84756 738.10465,923.260931 C738.10465,923.674303 737.966861,924.049393 737.69128,924.386215 Z" id="Oval-34" sketch:type="MSShapeGroup"></path>
        </g>
    </g>
</svg>