<?xml version="1.0" encoding="utf-8"?>
<!-- Generator: Adobe Illustrator 16.0.0, SVG Export Plug-In . SVG Version: 6.00 Build 0)  -->
<!DOCTYPE svg PUBLIC "-//W3C//DTD SVG 1.1//EN" "http://www.w3.org/Graphics/SVG/1.1/DTD/svg11.dtd">
<svg version="1.1" id="Layer_1" xmlns="http://www.w3.org/2000/svg" xmlns:xlink="http://www.w3.org/1999/xlink" x="0px" y="0px"
	 width="73.559px" height="55.111px" viewBox="0 0 73.559 55.111" enable-background="new 0 0 73.559 55.111" xml:space="preserve">
<g id="J7prvb_1_">
	<g>
		<path fill-rule="evenodd" clip-rule="evenodd" fill="#FFFFFF" d="M65.406,12.046c-2.32,1.49-4.635,2.977-6.985,4.487
			c-0.235-0.362-0.44-0.694-0.66-1.017c-0.855-1.253-1.911-2.254-3.438-2.628c-1.08-0.266-2.169-0.308-3.249,0.01
			c-3.392,1-3.372,4.953-1.682,6.5c0.652,0.599,1.406,1.131,2.199,1.526c1.621,0.806,3.296,1.499,4.951,2.234
			c2.468,1.098,4.885,2.279,7.006,3.986c2.925,2.354,4.362,5.432,4.511,9.156c0.099,2.452-0.261,4.802-1.487,6.962
			c-1.58,2.777-4.022,4.479-6.994,5.477c-2.907,0.974-5.897,1.163-8.933,0.859c-2.971-0.296-5.756-1.144-8.28-2.765
			c-2.453-1.574-4.325-3.677-5.694-6.339c2.451-1.418,4.891-2.831,7.321-4.237c0.526,0.705,0.992,1.381,1.509,2.018
			c2.789,3.435,6.89,3.969,10.098,3.04c0.643-0.186,1.281-0.515,1.821-0.913c2.004-1.476,2.207-4.347,0.418-6.083
			c-0.592-0.574-1.297-1.082-2.039-1.441c-1.982-0.965-4.011-1.841-6.025-2.736c-2.348-1.045-4.609-2.225-6.52-3.982
			c-2.422-2.228-3.627-5.021-3.834-8.279c-0.162-2.52,0.223-4.922,1.522-7.122c1.744-2.95,4.376-4.708,7.653-5.485
			c3.539-0.836,7.055-0.705,10.447,0.69c2.825,1.161,4.79,3.283,6.29,5.882C65.362,11.895,65.374,11.955,65.406,12.046z"/>
		<path fill-rule="evenodd" clip-rule="evenodd" fill="#FFFFFF" d="M22.763,5.331c3.046,0,6.013,0,9.017,0
			c0.009,0.201,0.025,0.38,0.025,0.561c0.001,9.949,0.001,19.898,0,29.847c0,2.064-0.181,4.105-0.857,6.078
			c-1.195,3.488-3.509,5.899-7.017,7.034c-4.127,1.334-8.257,1.268-12.277-0.457c-3.103-1.329-5.26-3.67-6.749-6.661
			c-0.04-0.079-0.061-0.167-0.105-0.286c2.442-1.478,4.874-2.948,7.323-4.433c0.348,0.572,0.663,1.11,0.999,1.634
			c0.528,0.826,1.111,1.62,1.952,2.147c1.849,1.168,3.795,1.15,5.701,0.214c1.193-0.585,1.623-1.776,1.811-3.018
			c0.118-0.778,0.167-1.575,0.168-2.366c0.011-9.858,0.008-19.715,0.008-29.572C22.763,5.826,22.763,5.6,22.763,5.331z"/>
	</g>
</g>
</svg>
