<?xml version="1.0" encoding="utf-8"?>
<!-- Generator: Adobe Illustrator 16.0.0, SVG Export Plug-In . SVG Version: 6.00 Build 0)  -->
<!DOCTYPE svg PUBLIC "-//W3C//DTD SVG 1.1//EN" "http://www.w3.org/Graphics/SVG/1.1/DTD/svg11.dtd">
<svg version="1.1" id="Layer_1" xmlns="http://www.w3.org/2000/svg" xmlns:xlink="http://www.w3.org/1999/xlink" x="0px" y="0px"
	 width="64.258px" height="58.023px" viewBox="0 0 64.258 58.023" enable-background="new 0 0 64.258 58.023" xml:space="preserve">
<g id="wdMwfX_1_">
	<g>
		<path fill-rule="evenodd" clip-rule="evenodd" fill="#FFFFFF" d="M14.163,50.602c2.519,0.349,5.027,0.847,7.559,1.014
			c7.329,0.486,14.643,0.306,21.894-1.012c0.795-0.146,1.578-0.391,2.347-0.65c0.621-0.21,1.177-0.446,1.158-1.347
			c-0.02-0.774,0.648-0.641,1.115-0.429c0.897,0.409,1.135,1.806,0.303,2.439c-0.874,0.666-1.892,1.224-2.93,1.581
			c-3.991,1.372-8.161,1.831-12.345,2.062c-7.063,0.394-14.102,0.096-21.09-1.073c-0.571-0.095-1.19-0.151-1.679-0.422
			c-0.531-0.295-1.273-0.789-1.312-1.247c-0.05-0.602,0.331-1.473,0.819-1.844c2-1.516,4.361-2.118,6.844-2.264
			c0.386-0.023,0.808-0.076,1.152,0.049c0.343,0.126,0.611,0.458,0.911,0.701c-0.289,0.223-0.545,0.548-0.872,0.648
			c-1.301,0.403-2.623,0.735-3.937,1.095C14.121,50.137,14.142,50.37,14.163,50.602z"/>
		<path fill-rule="evenodd" clip-rule="evenodd" fill="#FFFFFF" d="M38.146,4.678c-0.186,2.308-0.949,4.31-2.335,5.977
			c-1.427,1.719-3.087,3.246-4.659,4.841c-1.165,1.182-2.462,2.25-3.508,3.529c-1.524,1.862-1.678,3.96-0.407,6.054
			c0.863,1.421,1.812,2.791,2.716,4.19c0.231,0.357,0.511,0.708,0.631,1.104c0.099,0.327-0.004,0.714-0.019,1.073
			c-0.388-0.063-0.92,0.011-1.14-0.218c-1.903-1.974-3.943-3.861-5.568-6.052c-2.33-3.143-2.038-6.005,0.727-8.762
			c1.721-1.716,3.724-3.146,5.539-4.774c1.322-1.185,2.667-2.381,3.779-3.752c1.466-1.808,2.104-3.933,1.631-6.316
			c-0.082-0.411,0.176-0.89,0.276-1.338C36.219,0.512,36.84,0.703,37,1.086C37.478,2.243,37.777,3.475,38.146,4.678z"/>
		<path fill-rule="evenodd" clip-rule="evenodd" fill="#FFFFFF" d="M42.488,11.587c0.117,0.1,0.495,0.278,0.495,0.458
			c0,0.292-0.169,0.695-0.401,0.856c-0.954,0.662-2.006,1.187-2.936,1.879c-1.456,1.086-2.954,2.152-4.226,3.435
			c-1.649,1.663-1.648,2.693-0.416,4.666c0.41,0.657,0.884,1.275,1.319,1.916c1.348,1.979,1.329,4.211-0.228,6.009
			c-0.827,0.953-1.868,1.731-2.871,2.513c-0.235,0.184-0.708,0.066-1.071,0.086c0.042-0.385-0.042-0.848,0.144-1.141
			c1.467-2.321,1.46-2.82-0.242-4.941c-1.057-1.318-1.918-2.731-2.128-4.45c-0.26-2.12,0.283-3.99,1.763-5.567
			c2.813-2.996,6.455-4.472,10.269-5.641C42.069,11.631,42.188,11.629,42.488,11.587z"/>
		<path fill-rule="evenodd" clip-rule="evenodd" fill="#FFFFFF" d="M19.262,33.923c0.941,0.124,1.879,0.316,2.825,0.363
			c6.301,0.315,12.551-0.226,18.772-1.194c0.153-0.022,0.322-0.108,0.455-0.068c0.333,0.098,0.648,0.253,0.971,0.385
			c-0.192,0.328-0.306,0.769-0.587,0.965c-2.057,1.436-4.489,1.622-6.864,1.9c-6.145,0.718-12.295,0.895-18.434-0.089
			c-0.57-0.091-1.179-0.193-1.666-0.472c-0.453-0.259-1.056-0.756-1.064-1.158c-0.009-0.479,0.443-1.247,0.875-1.407
			c2.13-0.792,4.31-1.462,6.495-2.092c0.693-0.2,1.461-0.186,2.193-0.178c0.279,0.003,0.555,0.263,0.832,0.405
			c-0.204,0.284-0.348,0.719-0.622,0.828c-0.86,0.345-1.776,0.546-2.656,0.847c-0.532,0.183-1.036,0.448-1.553,0.677
			C19.244,33.73,19.253,33.827,19.262,33.923z"/>
		<path fill-rule="evenodd" clip-rule="evenodd" fill="#FFFFFF" d="M29.916,57.269c-3.039-0.28-6.741-0.606-10.439-0.974
			c-0.61-0.06-1.237-0.218-1.791-0.473c-0.352-0.161-0.58-0.587-0.864-0.894c0.376-0.155,0.763-0.461,1.129-0.438
			c2.745,0.18,5.483,0.543,8.23,0.622c6.848,0.196,13.652-0.227,20.269-2.176c1.279-0.377,2.446-1.127,3.683-1.664
			c0.322-0.141,0.71-0.135,1.065-0.196c0.041,0.393,0.267,0.953,0.091,1.146c-0.769,0.837-1.539,1.783-2.517,2.291
			c-2.724,1.416-5.754,1.824-8.766,2.104C36.882,56.91,33.742,57.03,29.916,57.269z"/>
		<path fill-rule="evenodd" clip-rule="evenodd" fill="#FFFFFF" d="M21.663,39.052c0.542,0.108,1.135,0.271,1.738,0.344
			c4.343,0.522,8.68,0.377,12.935-0.587c1.683-0.381,2.715,0.553,3.914,1.221c0.561,0.313,0.239,1.118-0.588,1.285
			c-2.272,0.462-4.547,0.971-6.847,1.235c-3.741,0.43-7.5,0.447-11.217-0.323c-0.826-0.17-1.664-0.422-2.41-0.804
			c-1.556-0.795-1.612-2.198-0.176-3.176c0.412-0.279,0.864-0.551,1.339-0.675c0.445-0.116,0.942-0.031,1.417-0.036
			C21.738,37.971,21.708,38.403,21.663,39.052z"/>
		<path fill-rule="evenodd" clip-rule="evenodd" fill="#FFFFFF" d="M29.117,49.219c-2.021-0.3-4.045-0.58-6.062-0.913
			c-0.526-0.087-1.039-0.308-1.533-0.525c-1.395-0.614-1.961-1.379-1.814-2.377c0.122-0.827,1.38-1.811,2.54-1.899
			c0.281-0.022,0.836,0.224,0.834,0.338c-0.025,1.229,0.936,1.05,1.626,1.151c3.443,0.51,6.88,0.406,10.273-0.361
			c1.748-0.395,2.964,0.725,4.271,1.428c0.604,0.326,0.238,1.142-0.548,1.32c-2.37,0.539-4.737,1.091-7.122,1.546
			c-0.784,0.15-1.621,0.025-2.435,0.025C29.139,49.041,29.129,49.13,29.117,49.219z"/>
		<path fill-rule="evenodd" clip-rule="evenodd" fill="#FFFFFF" d="M46.267,30.231c2.178,0.059,3.919,0.811,4.873,2.838
			c0.839,1.78,0.258,3.963-1.408,5.614c-1.937,1.922-4.379,2.893-6.955,3.561c-0.313,0.08-0.721-0.207-1.085-0.322
			c0.215-0.366,0.346-0.844,0.659-1.078c1.147-0.852,2.433-1.535,3.517-2.456c0.747-0.635,1.317-1.514,1.844-2.359
			c0.566-0.912,0.441-1.88-0.248-2.706c-0.709-0.849-1.607-1.323-2.758-1.151c-0.152,0.022-0.311,0.107-0.454,0.083
			c-0.438-0.075-0.867-0.188-1.301-0.286c0.312-0.425,0.537-1.049,0.954-1.229C44.63,30.425,45.473,30.385,46.267,30.231z"/>
	</g>
</g>
</svg>
