<?xml version="1.0" encoding="utf-8"?>
<!-- Generator: Adobe Illustrator 16.0.0, SVG Export Plug-In . SVG Version: 6.00 Build 0)  -->
<!DOCTYPE svg PUBLIC "-//W3C//DTD SVG 1.1//EN" "http://www.w3.org/Graphics/SVG/1.1/DTD/svg11.dtd">
<svg version="1.1" id="Layer_1" xmlns="http://www.w3.org/2000/svg" xmlns:xlink="http://www.w3.org/1999/xlink" x="0px" y="0px"
	 width="55.111px" height="55.111px" viewBox="18.448 0 55.111 55.111" enable-background="new 18.448 0 55.111 55.111"
	 xml:space="preserve">
<g id="kkoKUi_1_">
	<g>
		<path fill="#A4A4A4" d="M18.448,55.111c0-18.371,0-36.741,0-55.111c18.37,0,36.74,0,55.111,0c0,18.37,0,36.74,0,55.111
			C55.188,55.111,36.818,55.111,18.448,55.111z M67.652,29.183c-0.019-0.052-0.025-0.086-0.043-0.115
			c-0.857-1.488-1.982-2.703-3.6-3.367c-1.943-0.798-3.955-0.874-5.98-0.395c-1.877,0.445-3.384,1.45-4.382,3.139
			c-0.744,1.261-0.965,2.636-0.872,4.078c0.119,1.865,0.808,3.463,2.195,4.739c1.093,1.006,2.388,1.683,3.731,2.279
			c1.154,0.514,2.314,1.015,3.45,1.567c0.424,0.205,0.828,0.497,1.167,0.825c1.024,0.993,0.908,2.637-0.239,3.482
			c-0.309,0.228-0.675,0.416-1.043,0.521c-1.837,0.533-4.185,0.227-5.78-1.739c-0.296-0.365-0.562-0.752-0.863-1.156
			c-1.393,0.806-2.788,1.615-4.191,2.427c0.783,1.523,1.855,2.727,3.26,3.629c1.445,0.928,3.039,1.413,4.739,1.583
			c1.737,0.173,3.45,0.065,5.114-0.493c1.7-0.57,3.1-1.545,4.004-3.135c0.702-1.236,0.908-2.582,0.852-3.985
			c-0.085-2.132-0.907-3.894-2.582-5.242c-1.215-0.978-2.599-1.653-4.011-2.282c-0.947-0.421-1.907-0.817-2.834-1.278
			c-0.454-0.226-0.887-0.53-1.261-0.874c-0.966-0.885-0.979-3.148,0.963-3.721c0.619-0.182,1.242-0.158,1.861-0.006
			c0.873,0.214,1.477,0.787,1.968,1.505c0.126,0.185,0.243,0.375,0.377,0.582C64.997,30.887,66.323,30.036,67.652,29.183z
			 M43.239,25.339c0,0.154,0,0.283,0,0.412c0,5.644,0.003,11.287-0.004,16.93c0,0.452-0.028,0.908-0.097,1.354
			c-0.107,0.711-0.354,1.393-1.037,1.729c-1.091,0.535-2.204,0.545-3.264-0.122c-0.481-0.304-0.815-0.758-1.118-1.23
			c-0.191-0.3-0.371-0.607-0.57-0.936c-1.403,0.85-2.795,1.691-4.192,2.537c0.024,0.068,0.037,0.119,0.06,0.164
			c0.853,1.712,2.087,3.052,3.863,3.814c2.302,0.986,4.666,1.024,7.029,0.261c2.007-0.65,3.332-2.03,4.016-4.027
			c0.388-1.129,0.491-2.296,0.491-3.479c0.001-5.696,0.001-11.392,0-17.087c0-0.104-0.009-0.206-0.015-0.32
			C46.681,25.339,44.984,25.339,43.239,25.339z"/>
	</g>
</g>
</svg>
