<?xml version="1.0" encoding="UTF-8" standalone="no"?>
<svg width="154px" height="47px" viewBox="0 0 154 47" version="1.1" xmlns="http://www.w3.org/2000/svg" xmlns:xlink="http://www.w3.org/1999/xlink" xmlns:sketch="http://www.bohemiancoding.com/sketch/ns">
    <!-- Generator: Sketch 3.0.4 (8054) - http://www.bohemiancoding.com/sketch -->
    <title>Logo</title>
    <desc>Created with Sketch.</desc>
    <defs></defs>
    <g id="Welcome" stroke="none" stroke-width="1" fill="none" fill-rule="evenodd" sketch:type="MSPage">
        <g id="Collection-View" sketch:type="MSArtboardGroup" transform="translate(-92.000000, -966.000000)">
            <g id="Logo" sketch:type="MSLayerGroup" transform="translate(92.000000, 966.000000)">
                <path d="M21.3757462,13.1037679 L22.1721837,13.1037679 L22.1721837,15.2993393 L21.3757462,15.2993393 L21.3757462,13.1037679 Z" id="Fill-1" fill="#4DA0B0" sketch:type="MSShapeGroup"></path>
                <path d="M22.8208848,13.1037679 L23.6173222,13.1037679 L23.6173222,15.2993393 L22.8208848,15.2993393 L22.8208848,13.1037679 Z" id="Fill-2" fill="#4DA0B0" sketch:type="MSShapeGroup"></path>
                <path d="M22.6204152,24.4500714 L23.8165363,24.4500714 L23.8165363,26.6825714 L22.6204152,26.6825714 L22.6204152,24.4500714 Z" id="Fill-3" fill="#4DA1B1" sketch:type="MSShapeGroup"></path>
                <path d="M21.5741232,20.7009821 L22.7702442,20.7009821 L22.7702442,22.9334821 L21.5741232,22.9334821 L21.5741232,20.7009821 Z" id="Fill-4" fill="#4DA1B1" sketch:type="MSShapeGroup"></path>
                <path d="M15.2909303,38.2487679 C14.8368395,38.3024821 14.4174857,37.9705446 14.3647526,37.5114554 C14.3116009,37.0515268 14.6384626,36.6360804 15.0963199,36.5815268 C15.1051088,36.5802679 15.1260346,36.5781696 15.1515642,36.5756518 C14.6974734,36.2902946 14.2597048,35.9810179 13.8382584,35.6515982 L13.8382584,35.6515982 C13.1539834,35.1161339 12.5132342,34.5265357 11.9273106,33.8861607 C11.2442912,34.3846964 10.2858877,34.3037054 9.7058234,33.6616518 C9.086,32.9738571 9.13915164,31.9125804 9.82510069,31.29025 C9.84937467,31.2684286 9.89290041,31.2327589 9.94647057,31.1912143 C9.36556923,30.1949821 8.88887858,29.1307679 8.53774298,28.0103214 C8.33141419,27.3527411 8.17070373,26.6750179 8.05268199,25.9830268 C7.90494556,25.1210804 7.82375329,24.2373125 7.82375329,23.3342411 C7.82375329,14.7202321 14.8134026,7.71219643 23.4042972,7.71219643 C26.3682333,7.71219643 29.1856884,8.52882143 31.6239674,10.0571607 L34.4569077,10.0571607 C31.3720203,7.48013393 27.4463326,6.033625 23.4042972,6.033625 C13.889736,6.033625 6.14968604,13.7945 6.14968604,23.3342411 C6.14968604,32.8739821 13.889736,40.6348571 23.4042972,40.6348571 C24.4995557,40.6348571 25.5810031,40.5274286 26.6394322,40.3243214 C19.292788,37.8442321 15.335293,38.2441518 15.2909303,38.2487679" id="Fill-5" fill="#4DA1B1" sketch:type="MSShapeGroup"></path>
                <path d="M33.8764249,42.1934107 C30.7266673,43.9592679 27.1479301,44.9160536 23.4042972,44.9160536 C11.5355789,44.9160536 1.87997752,35.2344732 1.87997752,23.3342411 C1.87997752,11.4335893 11.5355789,1.75200893 23.4042972,1.75200893 C30.0499257,1.75200893 36.3113557,4.87541071 40.3600873,10.0571607 L42.4422085,10.0571607 C38.1285557,3.85651786 30.9987033,0.0734375 23.4042972,0.0734375 C10.6123308,0.0734375 0.205910272,10.5078571 0.205910272,23.3342411 C0.205910272,36.1602054 10.6123308,46.594625 23.4042972,46.594625 C28.3030365,46.594625 32.9406213,45.0776161 36.8031129,42.3197232 C36.7131318,42.3205625 36.6218952,42.3222411 36.5327511,42.3222411 C35.5735105,42.3222411 34.6812327,42.2710446 33.8764249,42.1934107" id="Fill-6" fill="#4DA1B1" sketch:type="MSShapeGroup"></path>
                <path id="Fill-7" fill="#4DA0B0" sketch:type="MSShapeGroup" d="M12.0629101,33.787125 C11.9951104,33.8345446 12.0055733,33.8383214 12.0629101,33.787125"></path>
                <path d="M53.8162399,33.0288304 C53.5760112,32.8378929 53.2629607,32.8039018 52.9951099,32.9075536 C52.9289842,32.9008393 52.860766,32.9134286 52.8017551,32.9541339 L52.7917107,32.9616875 C52.7917107,32.9616875 52.6406262,33.0661786 52.3572903,33.2629911 C52.0697692,33.4526696 51.6449747,33.7279554 51.0749548,34.0233839 C50.5070275,34.3221696 49.7947118,34.6436161 48.9463783,34.921 C48.0997187,35.2025804 47.1136931,35.4279286 46.0230383,35.5605357 C43.8404731,35.8274286 41.2385541,35.6499196 38.5541873,34.9915 C35.8668908,34.3402143 33.0963095,33.2436875 30.4784869,31.8706161 C30.4257538,31.8425 30.3738577,31.8135446 30.3211246,31.7850089 L29.6293163,29.0984554 C29.6293163,27.4198839 27.3320775,27.6028482 27.3320775,27.6028482 L26.4762106,27.6028482 L24.8075841,17.8390179 C25.3378449,17.4609196 26.0175162,16.9418214 26.0007755,16.7706071 C25.9944977,16.7072411 25.6236918,16.6581429 25.0586942,16.6241518 L25.0586942,11.6006071 C25.3889039,11.5771071 25.588955,11.5477321 25.5797476,11.5112232 C25.5307811,11.3118929 23.9918948,10.4100804 23.9918948,10.4100804 L23.0552542,9.98120536 C23.125565,9.87461607 23.1669982,9.74746429 23.1669982,9.60982143 C23.1669982,9.23885714 22.8669216,8.93713393 22.4965342,8.93713393 C22.1261468,8.93713393 21.8256518,9.23885714 21.8256518,9.60982143 C21.8256518,9.74830357 21.8675035,9.87671429 21.9390698,9.98372321 L21.0032662,10.4172143 C21.0032662,10.4172143 19.3886284,11.3055982 19.4129023,11.5112232 C19.4170875,11.5473125 19.6154645,11.5766875 19.9343743,11.6001875 L19.9343743,16.6241518 C19.3572396,16.6585625 18.9835041,16.7076607 18.9968966,16.7706071 C19.0295409,16.9304911 19.6476903,17.4214732 20.151166,17.7987321 L19.0065225,25.9368661 C18.9759708,25.9288929 18.9454191,25.9188214 18.9148673,25.9108482 C17.6157912,25.5759732 16.3543815,25.3779018 15.1821159,25.2847411 C12.8333995,25.0954821 10.8584187,25.3426518 9.49991313,25.6170982 C8.89222672,25.7429911 8.41093238,25.8739196 8.05268199,25.9830268 C8.17070373,26.6750179 8.33141419,27.3527411 8.53774298,28.0103214 C8.55197255,28.0052857 8.56159843,28.0015089 8.57666504,27.9960536 C8.87841566,27.8894643 9.33669157,27.7425893 9.9372632,27.5969732 C11.1367324,27.3120357 12.9175214,27.0233214 15.0691164,27.1231964 C17.2144335,27.2155179 19.7259529,27.7010446 22.2261724,28.781625 C23.4775376,29.3149911 24.7251363,29.9839018 25.9313017,30.7694732 C27.17053,31.6263839 28.5357318,32.3544643 29.897167,33.0267321 C32.6367781,34.3616161 35.522033,35.4069464 38.3265141,35.9994821 C39.7281269,36.2961696 41.1075584,36.4774554 42.4229567,36.5362054 C43.7387736,36.5995714 44.9897203,36.5261339 46.1301786,36.3599554 C47.2693814,36.1870625 48.2976772,35.91975 49.1778181,35.5978839 C49.2326438,35.5781607 49.2820287,35.5571786 49.3360174,35.5370357 C49.3293211,35.5399732 49.3238804,35.5433304 49.3171842,35.5471071 C48.5789205,35.9218482 47.7372832,36.3289018 46.7772056,36.6574821 C45.9456127,36.9554286 45.030735,37.2172857 44.0543352,37.4078036 C43.9103655,37.4359196 43.7689068,37.4669732 43.6220074,37.4917321 C42.4823861,37.6910625 41.2645022,37.8010089 40.0039295,37.793875 C37.8682382,37.7871607 35.6157807,37.4338214 33.4424229,36.7745625 C33.0515282,36.6558036 32.6618891,36.53075 32.2772721,36.3922679 C31.6474043,36.1665 31.0267439,35.9142946 30.4286834,35.6373304 C30.1323735,35.4996875 29.8310414,35.3519732 29.5665387,35.2055179 C29.2647881,35.0364018 28.963456,34.8677054 28.6633795,34.6994286 C27.4488437,34.0284196 26.2075228,33.3813304 24.9942426,32.8265625 C22.5593117,31.7006607 20.1599549,30.8403929 17.9660897,30.3896964 C16.8704127,30.1630893 15.8278873,30.0367768 14.8753431,30.0103393 C13.9240544,29.9797054 13.0581431,30.0665714 12.3311794,30.2117679 C11.601286,30.3640982 11.0120144,30.5802143 10.5905679,30.7959107 C10.293421,30.943625 10.0787219,31.0900804 9.94647057,31.1912143 C9.89290041,31.2327589 9.84937467,31.2684286 9.82510069,31.29025 C9.13915164,31.9125804 9.086,32.9738571 9.7058234,33.6616518 C10.2858877,34.3037054 11.2442912,34.3846964 11.9273106,33.8861607 C11.9750216,33.8513304 12.0252436,33.8215357 12.0704434,33.7804107 C12.0670953,33.7837679 12.0662582,33.7841875 12.0629101,33.787125 C12.0838359,33.7724375 12.1093655,33.7552321 12.1457764,33.7329911 C12.2981165,33.6377321 12.6048894,33.4912768 13.0623282,33.3628661 C13.5235338,33.2399107 14.1345683,33.129125 14.8824579,33.105625 C15.6282548,33.0783482 16.5012809,33.1236696 17.4638696,33.2600536 C19.3911395,33.5269464 21.6636858,34.1706786 24.0366761,35.0901161 C24.63097,35.3188214 25.230286,35.5680893 25.8350428,35.8286875 C26.2677892,36.0204643 26.6963504,36.2118214 27.1311894,36.41325 C27.3048739,36.4934018 27.4756287,36.5701964 27.6534984,36.6566429 C27.9623638,36.8047768 28.2729033,36.9541696 28.5838613,37.1031429 C28.9333228,37.2739375 29.263114,37.4140982 29.6033682,37.5521607 C30.2805284,37.8257679 30.966059,38.064125 31.6595413,38.2743661 C34.4301226,39.1170089 37.3304441,39.4904911 40.0361553,39.3637589 C41.3883831,39.3033304 42.6878778,39.1203661 43.8952988,38.8455 C44.7185214,38.6637946 45.4927775,38.4287946 46.2193227,38.1686161 C46.5599954,38.0465 46.8935533,37.9201875 47.210789,37.7884196 C47.508773,37.6692411 47.7916904,37.5425089 48.0666559,37.4128393 C47.582432,37.7363839 47.0944414,38.0372679 46.6031026,38.3033214 C39.0258557,42.4103661 30.8760778,40.0532321 30.1913843,39.8425714 C27.3521663,38.7133125 24.9013318,37.9659286 22.8451587,37.4711696 C18.1837185,36.3490446 15.5692439,36.5353661 15.1515642,36.5756518 C15.1260346,36.5781696 15.1051088,36.5802679 15.0963199,36.5815268 C14.6384626,36.6360804 14.3116009,37.0515268 14.3647526,37.5114554 C14.4174857,37.9705446 14.8368395,38.3024821 15.2909303,38.2487679 C15.335293,38.2441518 19.292788,37.8442321 26.6394322,40.3243214 C27.5739802,40.6394732 28.5604243,40.9991071 29.6037867,41.4145536 L29.6615421,41.4351161 C29.7105085,41.4506429 31.3577907,41.9516964 33.8764249,42.1934107 C34.6812327,42.2710446 35.5735105,42.3222411 36.5327511,42.3222411 C36.6218952,42.3222411 36.7131318,42.3205625 36.8031129,42.3197232 C41.9161328,42.2689464 48.7819012,40.7481607 53.9522579,34.2080268 C54.2397789,33.8446161 54.1786754,33.317125 53.8162399,33.0288304 L53.8162399,33.0288304 Z M20.7714079,12.0827768 L24.2216605,12.0827768 L24.2216605,16.3203304 L20.7714079,16.3203304 L20.7714079,12.0827768 Z M23.399275,27.6028482 C23.2218239,27.5147232 23.0452098,27.4228214 22.8677586,27.3393125 C21.9884548,26.9280625 21.1024547,26.5835357 20.2239879,26.2969196 L21.3531463,18.2699911 L23.6064408,18.2632768 L25.2026639,27.6028482 L23.399275,27.6028482 L23.399275,27.6028482 Z" id="Fill-8" fill="#4DA0B0" sketch:type="MSShapeGroup"></path>
                <g id="Logo-Type" transform="translate(35.426031, 12.023591)" fill="#979797" sketch:type="MSShapeGroup">
                    <path d="M6.69414207,6.44691076 C8.04394525,6.44691076 9.15174064,6.96082218 10.0161212,8.15118009 L11.3659244,6.90680042 C10.3674077,5.60792922 8.96226167,4.63412814 6.58580137,4.63412814 C2.69632332,4.63412814 0.0769172073,7.6100229 0.0769172073,11.478921 C0.0769172073,15.3736555 2.69632332,18.3495503 6.58580137,18.3495503 C8.96226167,18.3495503 10.3674077,17.3757492 11.3659244,16.0773478 L10.0161212,14.8329681 C9.15174064,15.9960802 8.04394525,16.5372374 6.69414207,16.5372374 C3.9119904,16.5372374 2.18322927,14.3730784 2.18322927,11.478921 C2.18322927,8.58382398 3.9119904,6.44691076 6.69414207,6.44691076" id="Fill-1"></path>
                    <path d="M20.4412168,4.63412814 C16.4710695,4.63412814 13.9862685,7.69129043 13.9862685,11.478921 C13.9862685,15.265612 16.4710695,18.3495503 20.4412168,18.3495503 C24.4113641,18.3495503 26.8966342,15.265612 26.8966342,11.478921 C26.8966342,7.69129043 24.4113641,4.63412814 20.4412168,4.63412814 L20.4412168,4.63412814 Z M20.4412168,16.5372374 C17.6590652,16.5372374 16.0930496,14.1565216 16.0930496,11.478921 C16.0930496,8.82762657 17.6590652,6.44691076 20.4412168,6.44691076 C23.2233685,6.44691076 24.7626507,8.82762657 24.7626507,11.478921 C24.7626507,14.1565216 23.2233685,16.5372374 20.4412168,16.5372374 L20.4412168,16.5372374 Z" id="Fill-2"></path>
                    <path d="M40.1850197,6.93404618 C39.1316292,5.49988569 37.5379422,4.63412814 35.7824476,4.63412814 C32.3525968,4.63412814 29.9756675,7.33944431 29.9756675,11.505697 C29.9756675,15.7527474 32.3793302,18.3495503 35.7824476,18.3495503 C37.6190804,18.3495503 39.2122985,17.402995 40.1850197,16.0773478 L40.1850197,18.0249499 L42.2101935,18.0249499 L42.2101935,-0.0183204255 L40.1850197,-0.0183204255 L40.1850197,6.93404618 L40.1850197,6.93404618 Z M40.1850197,14.481122 C39.4557133,15.6174581 37.8887597,16.5372374 36.2683392,16.5372374 C33.6484641,16.5372374 32.0819795,14.3998544 32.0819795,11.505697 C32.0819795,8.61106974 33.6484641,6.44691076 36.2683392,6.44691076 C37.8887597,6.44691076 39.4557133,7.42071184 40.1850197,8.55704797 L40.1850197,14.481122 L40.1850197,14.481122 Z" id="Fill-3"></path>
                    <path d="M52.4734816,4.63412814 C48.7462801,4.63412814 46.0457357,7.69129043 46.0457357,11.478921 C46.0457357,15.5634363 48.8269494,18.3495503 52.689694,18.3495503 C54.8232085,18.3495503 56.578703,17.645858 57.8750394,16.3479264 L56.9027871,15.0222792 C55.876599,16.0773478 54.3640503,16.6725267 52.878704,16.6725267 C50.0698189,16.6725267 48.3410577,14.6164113 48.1792502,12.1548977 L58.7394199,12.1548977 L58.7394199,11.6405165 C58.7394199,7.71853619 56.4168955,4.63412814 52.4734816,4.63412814 L52.4734816,4.63412814 Z M48.1792502,10.6671852 C48.2871219,8.66509151 49.6645965,6.31209122 52.4462792,6.31209122 C55.4174408,6.31209122 56.7137771,8.71911328 56.7409796,10.6671852 L48.1792502,10.6671852 L48.1792502,10.6671852 Z" id="Fill-4"></path>
                    <path d="M73.080727,16.0773478 L71.7304548,14.8329681 C70.8665433,15.9960802 69.7587479,16.5372374 68.4084757,16.5372374 C65.626793,16.5372374 63.8980319,14.3730784 63.8980319,11.478921 C63.8980319,8.58382398 65.626793,6.44691076 68.4084757,6.44691076 C69.7587479,6.44691076 70.8665433,6.96082218 71.7304548,8.15118009 L73.080727,6.90680042 C72.0817414,5.60792922 70.6770643,4.63412814 68.300604,4.63412814 C64.411126,4.63412814 61.7917199,7.6100229 61.7917199,11.478921 C61.7917199,15.3736555 64.411126,18.3495503 68.300604,18.3495503 C70.6770643,18.3495503 72.0817414,17.3757492 73.080727,16.0773478" id="Fill-5"></path>
                    <path d="M88.6114368,11.478921 C88.6114368,7.69129043 86.1261668,4.63412814 82.1560195,4.63412814 C78.1858722,4.63412814 75.7010712,7.69129043 75.7010712,11.478921 C75.7010712,15.265612 78.1858722,18.3495503 82.1560195,18.3495503 C86.1261668,18.3495503 88.6114368,15.265612 88.6114368,11.478921 L88.6114368,11.478921 Z M82.1560195,16.5372374 C79.3738678,16.5372374 77.8073832,14.1565216 77.8073832,11.478921 C77.8073832,8.82762657 79.3738678,6.44691076 82.1560195,6.44691076 C84.9381711,6.44691076 86.4774533,8.82762657 86.4774533,11.478921 C86.4774533,14.1565216 84.9381711,16.5372374 82.1560195,16.5372374 L82.1560195,16.5372374 Z" id="Fill-6"></path>
                    <path d="M103.574179,4.95919826 L101.359057,4.95919826 L97.0376231,15.6714799 L92.6894558,4.95919826 L90.5020055,4.95919826 L95.9307657,18.0249499 L98.1454184,18.0249499 L103.574179,4.95919826" id="Fill-7"></path>
                    <path d="M111.892493,4.63412814 C108.165292,4.63412814 105.464747,7.69129043 105.464747,11.478921 C105.464747,15.5634363 108.24643,18.3495503 112.108706,18.3495503 C114.24222,18.3495503 115.997715,17.645858 117.29452,16.3479264 L116.322268,15.0222792 C115.295611,16.0773478 113.783531,16.6725267 112.298185,16.6725267 C109.48883,16.6725267 107.760538,14.6164113 107.598262,12.1548977 L118.158901,12.1548977 L118.158901,11.6405165 C118.158901,7.71853619 115.835907,4.63412814 111.892493,4.63412814 L111.892493,4.63412814 Z M107.598262,10.6671852 C107.706603,8.66509151 109.083608,6.31209122 111.86576,6.31209122 C114.836921,6.31209122 116.132789,8.71911328 116.159991,10.6671852 L107.598262,10.6671852 L107.598262,10.6671852 Z" id="Fill-8"></path>
                    <path d="M31.729286,23.4985294 C31.1458408,23.4985294 30.6885587,23.6911287 30.3039726,24.09042 L30.5623957,24.4756187 C30.8803827,24.1350467 31.2274481,23.979558 31.6556519,23.979558 C32.172967,23.979558 32.556615,24.2534248 32.556615,24.7339837 L32.556615,25.3775474 C32.2686445,25.0444914 31.8624841,24.8894724 31.3751854,24.8894724 C30.7696969,24.8894724 30.1266879,25.2666853 30.1266879,26.065268 C30.1266879,26.8427116 30.7696969,27.2490493 31.3751854,27.2490493 C31.85498,27.2490493 32.2611404,27.0794679 32.556615,26.7534583 L32.556615,27.1602657 L33.1105127,27.1602657 L33.1105127,24.7048589 C33.1105127,23.8391014 32.4829808,23.4985294 31.729286,23.4985294 L31.729286,23.4985294 Z M32.556615,26.40584 C32.3427476,26.7017853 31.9656657,26.849758 31.5740446,26.849758 C31.0576675,26.849758 30.6955938,26.5242181 30.6955938,26.0732538 C30.6955938,25.6143036 31.0576675,25.2887638 31.5740446,25.2887638 C31.9656657,25.2887638 32.3427476,25.4367364 32.556615,25.7326818 L32.556615,26.40584 L32.556615,26.40584 Z" id="Fill-9"></path>
                    <path d="M38.1743852,23.4985294 C37.6720783,23.4985294 37.2288663,23.7578338 36.9704433,24.1204843 L36.9704433,23.5877827 L36.4165456,23.5877827 L36.4165456,28.5216142 L36.9704433,28.5216142 L36.9704433,26.6205178 C37.2584138,27.0202788 37.6870865,27.2490493 38.1743852,27.2490493 C39.1123999,27.2490493 39.7619751,26.5242181 39.7619751,25.370501 C39.7619751,24.2087982 39.1123999,23.4985294 38.1743852,23.4985294 L38.1743852,23.4985294 Z M38.034152,26.7534583 C37.5979751,26.7534583 37.1622673,26.4875772 36.9704433,26.1765998 L36.9704433,24.5639326 C37.1622673,24.2534248 37.5979751,23.9945901 38.034152,23.9945901 C38.7503262,23.9945901 39.1785299,24.578495 39.1785299,25.370501 C39.1785299,26.1615676 38.7503262,26.7534583 38.034152,26.7534583 L38.034152,26.7534583 Z" id="Fill-10"></path>
                    <path d="M40.7862872,22.2264342 L41.3406539,22.2264342 L41.3406539,27.1602657 L40.7862872,27.1602657 L40.7862872,22.2264342 Z" id="Fill-11"></path>
                    <path d="M43.9980496,23.4985294 C43.4141354,23.4985294 42.9568532,23.6911287 42.5727362,24.09042 L42.8306902,24.4756187 C43.1486772,24.1350467 43.4957427,23.979558 43.9239464,23.979558 C44.4412615,23.979558 44.8249095,24.2534248 44.8249095,24.7339837 L44.8249095,25.3775474 C44.536939,25.0444914 44.1307787,24.8894724 43.64348,24.8894724 C43.0379915,24.8894724 42.3954514,25.2666853 42.3954514,26.065268 C42.3954514,26.8427116 43.0379915,27.2490493 43.64348,27.2490493 C44.1232745,27.2490493 44.5294349,27.0794679 44.8249095,26.7534583 L44.8249095,27.1602657 L45.3788072,27.1602657 L45.3788072,24.7048589 C45.3788072,23.8391014 44.7512754,23.4985294 43.9980496,23.4985294 L43.9980496,23.4985294 Z M44.8249095,26.40584 C44.6110422,26.7017853 44.2344293,26.849758 43.8428081,26.849758 C43.325962,26.849758 42.9638883,26.5242181 42.9638883,26.0732538 C42.9638883,25.6143036 43.325962,25.2887638 43.8428081,25.2887638 C44.2344293,25.2887638 44.6110422,25.4367364 44.8249095,25.7326818 L44.8249095,26.40584 L44.8249095,26.40584 Z" id="Fill-12"></path>
                    <path d="M48.2350621,23.9945901 C48.6046399,23.9945901 48.9071496,24.1350467 49.1435293,24.4601168 L49.5126381,24.1204843 C49.2396758,23.7653499 48.8555588,23.4985294 48.2055146,23.4985294 C47.1422749,23.4985294 46.4256317,24.3126139 46.4256317,25.370501 C46.4256317,26.4354345 47.1422749,27.2490493 48.2055146,27.2490493 C48.8555588,27.2490493 49.2396758,26.9826985 49.5126381,26.6280338 L49.1435293,26.2874618 C48.9071496,26.6059554 48.6046399,26.7534583 48.2350621,26.7534583 C47.4748011,26.7534583 47.0020417,26.1615676 47.0020417,25.370501 C47.0020417,24.578495 47.4748011,23.9945901 48.2350621,23.9945901" id="Fill-13"></path>
                    <path d="M51.9857139,23.4985294 C50.9660919,23.4985294 50.2278744,24.3346924 50.2278744,25.370501 C50.2278744,26.4875772 50.9886043,27.2490493 52.0448089,27.2490493 C52.628254,27.2490493 53.1080486,27.0569197 53.4626181,26.7017853 L53.1966909,26.3391348 C52.9157555,26.6280338 52.502091,26.7905689 52.0959307,26.7905689 C51.3281656,26.7905689 50.8558752,26.2282728 50.8113195,25.5551146 L53.6989978,25.5551146 L53.6989978,25.414658 C53.6989978,24.3417387 53.0639619,23.4985294 51.9857139,23.4985294 L51.9857139,23.4985294 Z M50.8113195,25.1483072 C50.840398,24.6010432 51.2174799,23.9574795 51.9777408,23.9574795 C52.7905306,23.9574795 53.1451001,24.6156056 53.1521352,25.1483072 L50.8113195,25.1483072 L50.8113195,25.1483072 Z" id="Fill-14"></path>
                    <path d="M57.8164135,26.7534583 C57.5729986,26.7534583 57.4548088,26.5613287 57.4548088,26.2949779 L57.4548088,24.0758576 L58.1784871,24.0758576 L58.1784871,23.5877827 L57.4548088,23.5877827 L57.4548088,22.6111631 L56.9004421,22.6111631 L56.9004421,23.5877827 L56.3099618,23.5877827 L56.3099618,24.0758576 L56.9004421,24.0758576 L56.9004421,26.413356 C56.9004421,26.9455879 57.1668383,27.2490493 57.6911885,27.2490493 C58.0157416,27.2490493 58.2150697,27.1532194 58.3557719,27.0202788 L58.1930264,26.6059554 C58.1193922,26.6872229 57.9716549,26.7534583 57.8164135,26.7534583" id="Fill-15"></path>
                    <path d="M60.6665712,23.4985294 C59.5803501,23.4985294 58.9012275,24.3346924 58.9012275,25.370501 C58.9012275,26.40584 59.5803501,27.2490493 60.6665712,27.2490493 C61.7518542,27.2490493 62.4314459,26.40584 62.4314459,25.370501 C62.4314459,24.3346924 61.7518542,23.4985294 60.6665712,23.4985294 L60.6665712,23.4985294 Z M60.6665712,26.7534583 C59.9053722,26.7534583 59.4771685,26.1023786 59.4771685,25.370501 C59.4771685,24.6452001 59.9053722,23.9945901 60.6665712,23.9945901 C61.4273011,23.9945901 61.8480007,24.6452001 61.8480007,25.370501 C61.8480007,26.1023786 61.4273011,26.7534583 60.6665712,26.7534583 L60.6665712,26.7534583 Z" id="Fill-16"></path>
                    <path d="M65.8551996,24.5122596 C65.8551996,24.1942358 66.1581784,23.9499634 66.645477,23.9499634 C67.1032282,23.9499634 67.4948494,24.1425628 67.7087167,24.4009278 L67.9676088,24.0166686 C67.6796383,23.7282393 67.2509655,23.4985294 66.645477,23.4985294 C65.7961047,23.4985294 65.3163102,23.9720419 65.3163102,24.526822 C65.3163102,25.8510599 67.5243968,25.3183583 67.5243968,26.1836461 C67.5243968,26.5387805 67.2289222,26.798085 66.6825286,26.798085 C66.19523,26.798085 65.7445139,26.5613287 65.5081342,26.2874618 L65.2201637,26.6872229 C65.5817683,27.0719518 66.0770401,27.2490493 66.6600163,27.2490493 C67.5834918,27.2490493 68.0632863,26.7680207 68.0632863,26.1690837 C68.0632863,24.7786104 65.8551996,25.2967496 65.8551996,24.5122596" id="Fill-17"></path>
                    <path d="M70.1372368,26.7534583 C69.893353,26.7534583 69.7751632,26.5613287 69.7751632,26.2949779 L69.7751632,24.0758576 L70.4988415,24.0758576 L70.4988415,23.5877827 L69.7751632,23.5877827 L69.7751632,22.6111631 L69.2212655,22.6111631 L69.2212655,23.5877827 L68.6303162,23.5877827 L68.6303162,24.0758576 L69.2212655,24.0758576 L69.2212655,26.413356 C69.2212655,26.9455879 69.4871926,27.2490493 70.0115429,27.2490493 C70.336565,27.2490493 70.5358931,27.1532194 70.6761263,27.0202788 L70.5138497,26.6059554 C70.4402156,26.6872229 70.2920093,26.7534583 70.1372368,26.7534583" id="Fill-18"></path>
                    <path d="M72.9864566,23.4985294 C71.9007045,23.4985294 71.2215819,24.3346924 71.2215819,25.370501 C71.2215819,26.40584 71.9007045,27.2490493 72.9864566,27.2490493 C74.0722086,27.2490493 74.7518003,26.40584 74.7518003,25.370501 C74.7518003,24.3346924 74.0722086,23.4985294 72.9864566,23.4985294 L72.9864566,23.4985294 Z M72.9864566,26.7534583 C72.2257266,26.7534583 71.7975229,26.1023786 71.7975229,25.370501 C71.7975229,24.6452001 72.2257266,23.9945901 72.9864566,23.9945901 C73.7471865,23.9945901 74.1683551,24.6452001 74.1683551,25.370501 C74.1683551,26.1023786 73.7471865,26.7534583 72.9864566,26.7534583 L72.9864566,26.7534583 Z" id="Fill-19"></path>
                    <path d="M76.3525224,24.1641715 L76.3525224,23.5877827 L75.7981557,23.5877827 L75.7981557,27.1602657 L76.3525224,27.1602657 L76.3525224,24.6306377 C76.5147989,24.3417387 76.9800542,24.0612953 77.3196156,24.0612953 C77.408727,24.0612953 77.475326,24.0683416 77.5414561,24.0833737 L77.5414561,23.5135615 C77.0541574,23.5135615 76.6404929,23.7874284 76.3525224,24.1641715" id="Fill-20"></path>
                    <path d="M79.9329246,23.4985294 C78.9133026,23.4985294 78.175085,24.3346924 78.175085,25.370501 C78.175085,26.4875772 78.9358149,27.2490493 79.9920195,27.2490493 C80.5754647,27.2490493 81.0552592,27.0569197 81.4098288,26.7017853 L81.1439016,26.3391348 C80.8629662,26.6280338 80.4493017,26.7905689 80.0431413,26.7905689 C79.2753763,26.7905689 78.8030859,26.2282728 78.7585302,25.5551146 L81.6462085,25.5551146 L81.6462085,25.414658 C81.6462085,24.3417387 81.0111725,23.4985294 79.9329246,23.4985294 L79.9329246,23.4985294 Z M78.7585302,25.1483072 C78.7876086,24.6010432 79.1646905,23.9574795 79.9249515,23.9574795 C80.7377412,23.9574795 81.0918418,24.6156056 81.0993459,25.1483072 L78.7585302,25.1483072 L78.7585302,25.1483072 Z" id="Fill-21"></path>
                    <path d="M85.9934377,26.516702 L84.803566,23.5877827 L84.2055816,23.5877827 L85.6979631,27.1973763 L85.4615834,27.737594 C85.3358894,28.0335393 85.1736128,28.1148068 84.929729,28.1148068 C84.8410866,28.1148068 84.7078885,28.0927284 84.6272193,28.0556178 L84.5381079,28.5587248 C84.6417585,28.5878496 84.8260784,28.6103978 84.9442682,28.6103978 C85.4170277,28.6028818 85.7791013,28.4032361 85.9934377,27.8850969 L87.7803558,23.5877827 L87.1748673,23.5877827 L85.9934377,26.516702" id="Fill-22"></path>
                    <path d="M90.0606695,23.4985294 C88.9749175,23.4985294 88.2957948,24.3346924 88.2957948,25.370501 C88.2957948,26.40584 88.9749175,27.2490493 90.0606695,27.2490493 C91.1464216,27.2490493 91.8260133,26.40584 91.8260133,25.370501 C91.8260133,24.3346924 91.1464216,23.4985294 90.0606695,23.4985294 L90.0606695,23.4985294 Z M90.0606695,26.7534583 C89.2999396,26.7534583 88.8717359,26.1023786 88.8717359,25.370501 C88.8717359,24.6452001 89.2999396,23.9945901 90.0606695,23.9945901 C90.8218685,23.9945901 91.2425681,24.6452001 91.2425681,25.370501 C91.2425681,26.1023786 90.8218685,26.7534583 90.0606695,26.7534583 L90.0606695,26.7534583 Z" id="Fill-23"></path>
                    <path d="M95.2797835,26.2137104 C95.0734202,26.5021396 94.6597557,26.7534583 94.2235789,26.7534583 C93.7437844,26.7534583 93.4262664,26.5688448 93.4262664,25.9398435 L93.4262664,23.5877827 L92.8723687,23.5877827 L92.8723687,26.1098946 C92.8723687,26.8863988 93.2635208,27.2490493 94.0097115,27.2490493 C94.5415659,27.2490493 95.0063522,26.9681361 95.2797835,26.6571586 L95.2797835,27.1602657 L95.8336812,27.1602657 L95.8336812,23.5877827 L95.2797835,23.5877827 L95.2797835,26.2137104" id="Fill-24"></path>
                    <path d="M97.6417045,24.1641715 L97.6417045,23.5877827 L97.0873378,23.5877827 L97.0873378,27.1602657 L97.6417045,27.1602657 L97.6417045,24.6306377 C97.8039811,24.3417387 98.2687674,24.0612953 98.6087977,24.0612953 C98.6979091,24.0612953 98.7640391,24.0683416 98.8306382,24.0833737 L98.8306382,23.5135615 C98.3433395,23.5135615 97.9296751,23.7874284 97.6417045,24.1641715" id="Fill-25"></path>
                    <path d="M103.326074,23.9945901 C103.695183,23.9945901 103.997692,24.1350467 104.234072,24.4601168 L104.603181,24.1204843 C104.32975,23.7653499 103.946101,23.4985294 103.296057,23.4985294 C102.232818,23.4985294 101.516174,24.3126139 101.516174,25.370501 C101.516174,26.4354345 102.232818,27.2490493 103.296057,27.2490493 C103.946101,27.2490493 104.32975,26.9826985 104.603181,26.6280338 L104.234072,26.2874618 C103.997692,26.6059554 103.695183,26.7534583 103.326074,26.7534583 C102.565344,26.7534583 102.092584,26.1615676 102.092584,25.370501 C102.092584,24.578495 102.565344,23.9945901 103.326074,23.9945901" id="Fill-26"></path>
                    <path d="M107.082823,23.4985294 C105.997071,23.4985294 105.317948,24.3346924 105.317948,25.370501 C105.317948,26.40584 105.997071,27.2490493 107.082823,27.2490493 C108.168575,27.2490493 108.848166,26.40584 108.848166,25.370501 C108.848166,24.3346924 108.168575,23.4985294 107.082823,23.4985294 L107.082823,23.4985294 Z M107.082823,26.7534583 C106.322093,26.7534583 105.893889,26.1023786 105.893889,25.370501 C105.893889,24.6452001 106.322093,23.9945901 107.082823,23.9945901 C107.843553,23.9945901 108.264721,24.6452001 108.264721,25.370501 C108.264721,26.1023786 107.843553,26.7534583 107.082823,26.7534583 L107.082823,26.7534583 Z" id="Fill-27"></path>
                    <path d="M112.47969,24.1275306 C112.19172,23.7352856 111.756012,23.4985294 111.276218,23.4985294 C110.338203,23.4985294 109.688159,24.2388625 109.688159,25.3775474 C109.688159,26.5387805 110.345238,27.2490493 111.276218,27.2490493 C111.778055,27.2490493 112.214232,26.9902146 112.47969,26.6280338 L112.47969,27.1602657 L113.034057,27.1602657 L113.034057,22.2264342 L112.47969,22.2264342 L112.47969,24.1275306 L112.47969,24.1275306 Z M112.47969,26.1916319 C112.280362,26.5021396 111.852159,26.7534583 111.408947,26.7534583 C110.692772,26.7534583 110.264569,26.1690837 110.264569,25.3775474 C110.264569,24.5864808 110.692772,23.9945901 111.408947,23.9945901 C111.852159,23.9945901 112.280362,24.2609409 112.47969,24.5714486 L112.47969,26.1916319 L112.47969,26.1916319 Z" id="Fill-28"></path>
                    <path d="M115.837783,23.4985294 C114.818161,23.4985294 114.079944,24.3346924 114.079944,25.370501 C114.079944,26.4875772 114.840673,27.2490493 115.896878,27.2490493 C116.480323,27.2490493 116.960587,27.0569197 117.315156,26.7017853 L117.04876,26.3391348 C116.768294,26.6280338 116.354629,26.7905689 115.948938,26.7905689 C115.180235,26.7905689 114.707475,26.2282728 114.663389,25.5551146 L117.551536,25.5551146 L117.551536,25.414658 C117.551536,24.3417387 116.916031,23.4985294 115.837783,23.4985294 L115.837783,23.4985294 Z M114.663389,25.1483072 C114.692936,24.6010432 115.070018,23.9574795 115.830748,23.9574795 C116.6426,23.9574795 116.997169,24.6156056 117.004673,25.1483072 L114.663389,25.1483072 L114.663389,25.1483072 Z" id="Fill-29"></path>
                </g>
            </g>
        </g>
    </g>
</svg>