<?xml version="1.0" encoding="UTF-8" standalone="no"?>
<svg width="55px" height="47px" viewBox="0 0 55 47" version="1.1" xmlns="http://www.w3.org/2000/svg" xmlns:xlink="http://www.w3.org/1999/xlink" xmlns:sketch="http://www.bohemiancoding.com/sketch/ns">
    <!-- Generator: Sketch 3.0.4 (8053) - http://www.bohemiancoding.com/sketch -->
    <title>Group</title>
    <desc>Created with Sketch.</desc>
    <defs></defs>
    <g id="Page-1" stroke="none" stroke-width="1" fill="none" fill-rule="evenodd" sketch:type="MSPage">
        <g id="Group" sketch:type="MSLayerGroup">
            <path d="M21.3757462,13.1037679 L22.1721837,13.1037679 L22.1721837,15.2993393 L21.3757462,15.2993393 L21.3757462,13.1037679 L21.3757462,13.1037679 Z" id="Fill-1" fill="#4DA0B0" sketch:type="MSShapeGroup"></path>
            <path d="M22.8208848,13.1037679 L23.6173222,13.1037679 L23.6173222,15.2993393 L22.8208848,15.2993393 L22.8208848,13.1037679 L22.8208848,13.1037679 Z" id="Fill-2" fill="#4DA0B0" sketch:type="MSShapeGroup"></path>
            <path d="M22.6204152,24.4500714 L23.8165363,24.4500714 L23.8165363,26.6825714 L22.6204152,26.6825714 L22.6204152,24.4500714 L22.6204152,24.4500714 Z" id="Fill-3" fill="#4DA1B1" sketch:type="MSShapeGroup"></path>
            <path d="M21.5741232,20.7009821 L22.7702442,20.7009821 L22.7702442,22.9334821 L21.5741232,22.9334821 L21.5741232,20.7009821 L21.5741232,20.7009821 Z" id="Fill-4" fill="#4DA1B1" sketch:type="MSShapeGroup"></path>
            <path d="M15.2909303,38.2487679 C14.8368395,38.3024821 14.4174857,37.9705446 14.3647526,37.5114554 C14.3116009,37.0515268 14.6384626,36.6360804 15.0963199,36.5815268 C15.1051088,36.5802679 15.1260346,36.5781696 15.1515642,36.5756518 C14.6974734,36.2902946 14.2597048,35.9810179 13.8382584,35.6515982 L13.8382584,35.6515982 C13.1539834,35.1161339 12.5132342,34.5265357 11.9273106,33.8861607 C11.2442912,34.3846964 10.2858877,34.3037054 9.7058234,33.6616518 C9.086,32.9738571 9.13915164,31.9125804 9.82510069,31.29025 C9.84937467,31.2684286 9.89290041,31.2327589 9.94647057,31.1912143 C9.36556923,30.1949821 8.88887858,29.1307679 8.53774298,28.0103214 C8.33141419,27.3527411 8.17070373,26.6750179 8.05268199,25.9830268 C7.90494556,25.1210804 7.82375329,24.2373125 7.82375329,23.3342411 C7.82375329,14.7202321 14.8134026,7.71219643 23.4042972,7.71219643 C26.3682333,7.71219643 29.1856884,8.52882143 31.6239674,10.0571607 L34.4569077,10.0571607 C31.3720203,7.48013393 27.4463326,6.033625 23.4042972,6.033625 C13.889736,6.033625 6.14968604,13.7945 6.14968604,23.3342411 C6.14968604,32.8739821 13.889736,40.6348571 23.4042972,40.6348571 C24.4995557,40.6348571 25.5810031,40.5274286 26.6394322,40.3243214 C19.292788,37.8442321 15.335293,38.2441518 15.2909303,38.2487679" id="Fill-5" fill="#4DA1B1" sketch:type="MSShapeGroup"></path>
            <path d="M33.8764249,42.1934107 C30.7266673,43.9592679 27.1479301,44.9160536 23.4042972,44.9160536 C11.5355789,44.9160536 1.87997752,35.2344732 1.87997752,23.3342411 C1.87997752,11.4335893 11.5355789,1.75200893 23.4042972,1.75200893 C30.0499257,1.75200893 36.3113557,4.87541071 40.3600873,10.0571607 L42.4422085,10.0571607 C38.1285557,3.85651786 30.9987033,0.0734375 23.4042972,0.0734375 C10.6123308,0.0734375 0.205910272,10.5078571 0.205910272,23.3342411 C0.205910272,36.1602054 10.6123308,46.594625 23.4042972,46.594625 C28.3030365,46.594625 32.9406213,45.0776161 36.8031129,42.3197232 C36.7131318,42.3205625 36.6218952,42.3222411 36.5327511,42.3222411 C35.5735105,42.3222411 34.6812327,42.2710446 33.8764249,42.1934107" id="Fill-6" fill="#4DA1B1" sketch:type="MSShapeGroup"></path>
            <path d="M12.0629101,33.787125 C11.9951104,33.8345446 12.0055733,33.8383214 12.0629101,33.787125" id="Fill-7" fill="#4DA0B0" sketch:type="MSShapeGroup"></path>
            <path d="M53.8162399,33.0288304 C53.5760112,32.8378929 53.2629607,32.8039018 52.9951099,32.9075536 C52.9289842,32.9008393 52.860766,32.9134286 52.8017551,32.9541339 L52.7917107,32.9616875 C52.7917107,32.9616875 52.6406262,33.0661786 52.3572903,33.2629911 C52.0697692,33.4526696 51.6449747,33.7279554 51.0749548,34.0233839 C50.5070275,34.3221696 49.7947118,34.6436161 48.9463783,34.921 C48.0997187,35.2025804 47.1136931,35.4279286 46.0230383,35.5605357 C43.8404731,35.8274286 41.2385541,35.6499196 38.5541873,34.9915 C35.8668908,34.3402143 33.0963095,33.2436875 30.4784869,31.8706161 C30.4257538,31.8425 30.3738577,31.8135446 30.3211246,31.7850089 L29.6293163,29.0984554 C29.6293163,27.4198839 27.3320775,27.6028482 27.3320775,27.6028482 L26.4762106,27.6028482 L24.8075841,17.8390179 C25.3378449,17.4609196 26.0175162,16.9418214 26.0007755,16.7706071 C25.9944977,16.7072411 25.6236918,16.6581429 25.0586942,16.6241518 L25.0586942,11.6006071 C25.3889039,11.5771071 25.588955,11.5477321 25.5797476,11.5112232 C25.5307811,11.3118929 23.9918948,10.4100804 23.9918948,10.4100804 L23.0552542,9.98120536 C23.125565,9.87461607 23.1669982,9.74746429 23.1669982,9.60982143 C23.1669982,9.23885714 22.8669216,8.93713393 22.4965342,8.93713393 C22.1261468,8.93713393 21.8256518,9.23885714 21.8256518,9.60982143 C21.8256518,9.74830357 21.8675035,9.87671429 21.9390698,9.98372321 L21.0032662,10.4172143 C21.0032662,10.4172143 19.3886284,11.3055982 19.4129023,11.5112232 C19.4170875,11.5473125 19.6154645,11.5766875 19.9343743,11.6001875 L19.9343743,16.6241518 C19.3572396,16.6585625 18.9835041,16.7076607 18.9968966,16.7706071 C19.0295409,16.9304911 19.6476903,17.4214732 20.151166,17.7987321 L19.0065225,25.9368661 C18.9759708,25.9288929 18.9454191,25.9188214 18.9148673,25.9108482 C17.6157912,25.5759732 16.3543815,25.3779018 15.1821159,25.2847411 C12.8333995,25.0954821 10.8584187,25.3426518 9.49991313,25.6170982 C8.89222672,25.7429911 8.41093238,25.8739196 8.05268199,25.9830268 C8.17070373,26.6750179 8.33141419,27.3527411 8.53774298,28.0103214 C8.55197255,28.0052857 8.56159843,28.0015089 8.57666504,27.9960536 C8.87841566,27.8894643 9.33669157,27.7425893 9.9372632,27.5969732 C11.1367324,27.3120357 12.9175214,27.0233214 15.0691164,27.1231964 C17.2144335,27.2155179 19.7259529,27.7010446 22.2261724,28.781625 C23.4775376,29.3149911 24.7251363,29.9839018 25.9313017,30.7694732 C27.17053,31.6263839 28.5357318,32.3544643 29.897167,33.0267321 C32.6367781,34.3616161 35.522033,35.4069464 38.3265141,35.9994821 C39.7281269,36.2961696 41.1075584,36.4774554 42.4229567,36.5362054 C43.7387736,36.5995714 44.9897203,36.5261339 46.1301786,36.3599554 C47.2693814,36.1870625 48.2976772,35.91975 49.1778181,35.5978839 C49.2326438,35.5781607 49.2820287,35.5571786 49.3360174,35.5370357 C49.3293211,35.5399732 49.3238804,35.5433304 49.3171842,35.5471071 C48.5789205,35.9218482 47.7372832,36.3289018 46.7772056,36.6574821 C45.9456127,36.9554286 45.030735,37.2172857 44.0543352,37.4078036 C43.9103655,37.4359196 43.7689068,37.4669732 43.6220074,37.4917321 C42.4823861,37.6910625 41.2645022,37.8010089 40.0039295,37.793875 C37.8682382,37.7871607 35.6157807,37.4338214 33.4424229,36.7745625 C33.0515282,36.6558036 32.6618891,36.53075 32.2772721,36.3922679 C31.6474043,36.1665 31.0267439,35.9142946 30.4286834,35.6373304 C30.1323735,35.4996875 29.8310414,35.3519732 29.5665387,35.2055179 C29.2647881,35.0364018 28.963456,34.8677054 28.6633795,34.6994286 C27.4488437,34.0284196 26.2075228,33.3813304 24.9942426,32.8265625 C22.5593117,31.7006607 20.1599549,30.8403929 17.9660897,30.3896964 C16.8704127,30.1630893 15.8278873,30.0367768 14.8753431,30.0103393 C13.9240544,29.9797054 13.0581431,30.0665714 12.3311794,30.2117679 C11.601286,30.3640982 11.0120144,30.5802143 10.5905679,30.7959107 C10.293421,30.943625 10.0787219,31.0900804 9.94647057,31.1912143 C9.89290041,31.2327589 9.84937467,31.2684286 9.82510069,31.29025 C9.13915164,31.9125804 9.086,32.9738571 9.7058234,33.6616518 C10.2858877,34.3037054 11.2442912,34.3846964 11.9273106,33.8861607 C11.9750216,33.8513304 12.0252436,33.8215357 12.0704434,33.7804107 C12.0670953,33.7837679 12.0662582,33.7841875 12.0629101,33.787125 C12.0838359,33.7724375 12.1093655,33.7552321 12.1457764,33.7329911 C12.2981165,33.6377321 12.6048894,33.4912768 13.0623282,33.3628661 C13.5235338,33.2399107 14.1345683,33.129125 14.8824579,33.105625 C15.6282548,33.0783482 16.5012809,33.1236696 17.4638696,33.2600536 C19.3911395,33.5269464 21.6636858,34.1706786 24.0366761,35.0901161 C24.63097,35.3188214 25.230286,35.5680893 25.8350428,35.8286875 C26.2677892,36.0204643 26.6963504,36.2118214 27.1311894,36.41325 C27.3048739,36.4934018 27.4756287,36.5701964 27.6534984,36.6566429 C27.9623638,36.8047768 28.2729033,36.9541696 28.5838613,37.1031429 C28.9333228,37.2739375 29.263114,37.4140982 29.6033682,37.5521607 C30.2805284,37.8257679 30.966059,38.064125 31.6595413,38.2743661 C34.4301226,39.1170089 37.3304441,39.4904911 40.0361553,39.3637589 C41.3883831,39.3033304 42.6878778,39.1203661 43.8952988,38.8455 C44.7185214,38.6637946 45.4927775,38.4287946 46.2193227,38.1686161 C46.5599954,38.0465 46.8935533,37.9201875 47.210789,37.7884196 C47.508773,37.6692411 47.7916904,37.5425089 48.0666559,37.4128393 C47.582432,37.7363839 47.0944414,38.0372679 46.6031026,38.3033214 C39.0258557,42.4103661 30.8760778,40.0532321 30.1913843,39.8425714 C27.3521663,38.7133125 24.9013318,37.9659286 22.8451587,37.4711696 C18.1837185,36.3490446 15.5692439,36.5353661 15.1515642,36.5756518 C15.1260346,36.5781696 15.1051088,36.5802679 15.0963199,36.5815268 C14.6384626,36.6360804 14.3116009,37.0515268 14.3647526,37.5114554 C14.4174857,37.9705446 14.8368395,38.3024821 15.2909303,38.2487679 C15.335293,38.2441518 19.292788,37.8442321 26.6394322,40.3243214 C27.5739802,40.6394732 28.5604243,40.9991071 29.6037867,41.4145536 L29.6615421,41.4351161 C29.7105085,41.4506429 31.3577907,41.9516964 33.8764249,42.1934107 C34.6812327,42.2710446 35.5735105,42.3222411 36.5327511,42.3222411 C36.6218952,42.3222411 36.7131318,42.3205625 36.8031129,42.3197232 C41.9161328,42.2689464 48.7819012,40.7481607 53.9522579,34.2080268 C54.2397789,33.8446161 54.1786754,33.317125 53.8162399,33.0288304 L53.8162399,33.0288304 L53.8162399,33.0288304 Z M20.7714079,12.0827768 L24.2216605,12.0827768 L24.2216605,16.3203304 L20.7714079,16.3203304 L20.7714079,12.0827768 L20.7714079,12.0827768 Z M23.399275,27.6028482 C23.2218239,27.5147232 23.0452098,27.4228214 22.8677586,27.3393125 C21.9884548,26.9280625 21.1024547,26.5835357 20.2239879,26.2969196 L21.3531463,18.2699911 L23.6064408,18.2632768 L25.2026639,27.6028482 L23.399275,27.6028482 L23.399275,27.6028482 Z" id="Fill-8" fill="#4DA0B0" sketch:type="MSShapeGroup"></path>
        </g>
    </g>
</svg>