<?xml version="1.0" encoding="utf-8"?>
<!-- Generator: Adobe Illustrator 16.0.0, SVG Export Plug-In . SVG Version: 6.00 Build 0)  -->
<!DOCTYPE svg PUBLIC "-//W3C//DTD SVG 1.1//EN" "http://www.w3.org/Graphics/SVG/1.1/DTD/svg11.dtd">
<svg version="1.1" id="Layer_1" xmlns="http://www.w3.org/2000/svg" xmlns:xlink="http://www.w3.org/1999/xlink" x="0px" y="0px"
	 width="108.332px" height="55.41px" viewBox="0 0 108.332 55.41" enable-background="new 0 0 108.332 55.41" xml:space="preserve">
<g id="aph3Dq_1_">
	<g>
		<path fill="#FFFFFF" d="M54.165,55.41c-12.172-0.57-24.073-2.078-35.153-7.19c-4.554-2.102-9.044-4.823-12.76-8.161
			c-8.398-7.541-8.239-17.312-0.099-25.14C12.2,9.105,19.655,5.809,27.622,3.696c20.32-5.389,40.522-5.172,60.226,2.552
			c4.991,1.957,9.844,4.949,13.905,8.454c8.832,7.617,8.677,17.784,0.104,25.721c-7.662,7.093-17.162,10.485-27.162,12.382
			C67.932,54.086,61.014,54.568,54.165,55.41z M23.072,36.141c2.806,0,5.306,0.129,7.788-0.023
			c6.985-0.43,12.142-5.834,12.334-12.788c0.133-4.824-2.229-8.094-7.069-8.515c-5.029-0.437-10.126-0.098-15.405-0.098
			c-1.869,9.655-3.752,19.392-5.676,29.332c1.009,0.047,1.572,0.087,2.135,0.097c4.291,0.07,4.291,0.068,5.103-4.041
			C22.523,38.882,22.768,37.662,23.072,36.141z M73.52,36.171c2.516,0,4.811,0.068,7.101-0.012
			c7.348-0.261,12.409-5.128,12.985-12.417c0.388-4.891-2.043-8.394-6.908-8.919c-4.655-0.503-9.387-0.38-14.081-0.351
			c-0.582,0.004-1.515,1.04-1.675,1.737c-0.883,3.83-1.586,7.702-2.328,11.563c-1.028,5.339-2.036,10.683-3.09,16.216
			c2.324,0,4.299,0,6.359,0C72.419,41.426,72.928,38.997,73.52,36.171z M52.69,14.183c0.444-2.603,0.849-4.981,1.292-7.58
			c-1.859,0-3.321-0.173-4.709,0.071c-0.715,0.126-1.746,0.902-1.876,1.539c-1.873,9.194-3.616,18.415-5.428,27.82
			c2.158,0,4.132,0,6.356,0c0.788-4.008,1.606-8.021,2.361-12.046c0.92-4.911,0.897-4.916,5.951-4.73
			c3.625,0.133,4.211,0.871,3.534,4.412c-0.782,4.091-1.552,8.185-2.344,12.369c2.34,0,4.315,0,6.471,0
			c0.911-4.812,1.888-9.489,2.664-14.2c0.726-4.393-0.851-6.5-5.339-7.086C58.794,14.382,55.916,14.375,52.69,14.183z"/>
		<path fill="#FFFFFF" d="M74.368,31.536c1.694,0,3.022,0.028,4.353-0.005c5.131-0.131,7.531-2.297,8.166-7.336
			c0.377-3-0.707-4.554-3.762-4.875c-2.055-0.216-4.15-0.042-6.355-0.042C75.98,23.303,75.212,27.223,74.368,31.536z"/>
		<path fill="#FFFFFF" d="M26.521,19.494c2.628,0.009,5.311-0.205,7.866,0.265c2.057,0.377,2.104,2.433,1.981,4.239
			c-0.331,4.857-2.802,7.311-7.658,7.52c-1.423,0.062-2.851,0.01-4.752,0.01"/>
		<path fill="#FFFFFF" d="M74.368,31.536c0.845-4.313,1.612-8.233,2.399-12.257c2.207,0,4.303-0.175,6.356,0.042
			c3.056,0.321,4.14,1.874,3.763,4.875c-0.636,5.039-3.035,7.205-8.168,7.336C77.391,31.564,76.062,31.536,74.368,31.536z"/>
	</g>
</g>
</svg>
