<?xml version="1.0" encoding="utf-8"?>
<!-- Generator: Adobe Illustrator 16.0.0, SVG Export Plug-In . SVG Version: 6.00 Build 0)  -->
<!DOCTYPE svg PUBLIC "-//W3C//DTD SVG 1.1//EN" "http://www.w3.org/Graphics/SVG/1.1/DTD/svg11.dtd">
<svg version="1.1" id="Layer_1" xmlns="http://www.w3.org/2000/svg" xmlns:xlink="http://www.w3.org/1999/xlink" x="0px" y="0px"
	 width="64.258px" height="58.023px" viewBox="0 0 64.258 58.023" enable-background="new 0 0 64.258 58.023" xml:space="preserve">
<g id="EptIci_1_">
	<g>
		<path fill-rule="evenodd" clip-rule="evenodd" fill="#A4A4A4" d="M16.842,41.822c-2.078,0-4.064,0.203-5.993-0.049
			c-2.501-0.326-4.097-2.051-5.003-4.314C4.4,33.847,3.814,30.072,4.179,26.194c0.146-1.55,0.45-3.093,0.8-4.613
			c1.059-4.588,4.146-7.056,8.85-7.077c5.586-0.025,11.172-0.006,16.758-0.006c0.441,0,0.882,0,1.391,0c0-0.604,0-1.101,0-1.709
			c-4.452,0-8.865,0-13.243,0c0-2.551-0.136-5.001,0.042-7.429c0.15-2.067,1.576-3.395,3.494-3.924
			c2.064-0.571,4.194-1.007,6.325-1.231c3.565-0.377,7.147-0.247,10.668,0.502c4.127,0.877,6.325,3.65,6.327,7.833
			c0.001,3.761-0.07,7.524,0.018,11.283c0.108,4.655-3.311,7.753-7.601,7.569c-4.09-0.175-8.192-0.048-12.288-0.035
			c-5.148,0.016-8.853,3.733-8.875,8.889C16.835,38.097,16.842,39.951,16.842,41.822z M26.974,6.765
			c0-1.423-1.124-2.576-2.515-2.579c-1.389-0.004-2.516,1.144-2.521,2.566c-0.005,1.434,1.094,2.555,2.508,2.558
			C25.865,9.312,26.975,8.197,26.974,6.765z"/>
		<path fill-rule="evenodd" clip-rule="evenodd" fill="#A4A4A4" d="M32.091,41.924c0,0.641,0,1.111,0,1.717c4.478,0,8.926,0,13.32,0
			c0,2.279,0.177,4.445-0.054,6.566c-0.199,1.836-1.554,3.076-3.113,4.012c-2.384,1.428-5.035,2.039-7.74,2.348
			c-3.723,0.426-7.381-0.012-10.83-1.504c-1.238-0.537-2.396-1.354-3.432-2.229c-1.113-0.943-1.662-2.279-1.666-3.771
			c-0.009-4.471-0.055-8.943,0.014-13.412c0.056-3.592,3.008-6.498,6.605-6.545c4.283-0.057,8.568-0.016,12.854-0.021
			c5.519-0.006,9.181-3.653,9.192-9.154c0.004-1.746,0.001-3.491,0.001-5.44c2.514,0.13,4.967-0.367,7.349,0.412
			c1.607,0.526,2.721,1.746,3.346,3.268c2.802,6.824,3.161,13.648-0.266,20.396c-1.148,2.262-2.972,3.395-5.576,3.373
			c-6.185-0.051-12.369-0.016-18.554-0.016C33.1,41.924,32.659,41.924,32.091,41.924z M39.648,52.224
			c1.415,0.008,2.535-1.109,2.545-2.539c0.007-1.414-1.128-2.582-2.518-2.588c-1.389-0.01-2.527,1.141-2.532,2.559
			C37.138,51.092,38.235,52.217,39.648,52.224z"/>
	</g>
</g>
</svg>
