<?xml version="1.0" encoding="utf-8"?>
<!-- Generator: Adobe Illustrator 16.0.0, SVG Export Plug-In . SVG Version: 6.00 Build 0)  -->
<!DOCTYPE svg PUBLIC "-//W3C//DTD SVG 1.1//EN" "http://www.w3.org/Graphics/SVG/1.1/DTD/svg11.dtd">
<svg version="1.1" id="Layer_1" xmlns="http://www.w3.org/2000/svg" xmlns:xlink="http://www.w3.org/1999/xlink" x="0px" y="0px"
	 width="67.292px" height="57.948px" viewBox="22.004 2.55 67.292 57.948" enable-background="new 22.004 2.55 67.292 57.948"
	 xml:space="preserve">
<g id="CZmbzR_1_">
	<g>
		<path fill-rule="evenodd" clip-rule="evenodd" fill="#A4A4A4" d="M55.383,60.498C44.62,49.532,34.119,38.82,23.597,28.129
			c-1.474-1.498-1.83-3.123-1.454-5.21c1.112-6.183,4.343-10.636,9.554-14.229c9.111-6.283,19.219-6.333,29.592-6.055
			c7.427,0.199,13.793,2.957,19.735,7.023c5.231,3.581,7.798,8.778,8.266,14.979c0.08,1.073-0.675,2.477-1.479,3.308
			c-7.777,8.043-15.626,16.017-23.501,23.965C61.566,54.679,58.693,57.321,55.383,60.498z M56.347,5.521
			c-5.458,0.776-10.081,1.154-14.554,2.187c-2.259,0.521-5.595,0.972-5.692,4.137c-0.099,3.242,2.98,4.283,5.484,5.287
			c6.59,2.646,13.499,2.871,20.376,1.811c3.432-0.529,6.828-1.783,10.007-3.224c1.307-0.592,2.782-2.566,2.74-3.866
			c-0.039-1.198-1.831-3.045-3.156-3.372C66.318,7.188,60.967,6.38,56.347,5.521z M57.498,36.574
			c7.645-0.28,14.339-1.817,20.295-5.385c-3.564-3.7-7.062-7.328-10.754-11.157C63.927,25.428,60.859,30.746,57.498,36.574z
			 M55.664,54.916c3.395-5.909,6.485-11.293,9.629-16.765c-6.553,0-12.798,0-19.3,0C49.153,43.628,52.257,49.01,55.664,54.916z
			 M33.909,31.368c6.005,3.456,12.501,5.023,19.889,5.138c-3.253-5.629-6.235-10.79-9.201-15.923
			C41.007,24.206,37.515,27.729,33.909,31.368z M55.651,36.16c3.138-5.445,5.981-10.378,8.789-15.251c-5.902,0-11.621,0-17.566,0
			C49.755,25.915,52.555,30.779,55.651,36.16z M32.352,29.229c3.313-3.32,6.559-6.57,9.577-9.595c-2.41-1.6-5.114-3.396-7.938-5.271
			C33.447,19.284,32.898,24.271,32.352,29.229z M77.021,13.995c-2.537,1.892-5.003,3.729-6.896,5.14
			c2.934,3.063,5.968,6.231,9.109,9.512C78.479,23.653,77.735,18.727,77.021,13.995z M32.346,12.855
			c-7.662,5.194-8.354,12.629-1.773,15.881C31.152,23.543,31.724,18.427,32.346,12.855z M78.629,12.477
			c0.86,5.689,1.645,10.878,2.43,16.068c0.304,0.112,0.607,0.224,0.912,0.336c1.236-1.777,3.582-3.612,3.493-5.322
			C85.237,19.127,83.016,15.333,78.629,12.477z M76.419,34.262c-2,0.693-4.289,1.463-6.558,2.289
			c-0.74,0.27-1.737,0.498-2.086,1.069c-2.463,4.039-4.786,8.163-7.154,12.26c0.17,0.121,0.34,0.241,0.51,0.362
			C66.26,44.881,71.389,39.521,76.419,34.262z M50.208,50.129c0.133-0.137,0.266-0.272,0.399-0.409
			c-2.179-3.763-4.34-7.536-6.555-11.278c-0.351-0.593-0.845-1.301-1.436-1.52c-2.651-0.985-5.36-1.813-7.534-2.528
			C39.935,39.441,45.071,44.785,50.208,50.129z"/>
		<path fill-rule="evenodd" clip-rule="evenodd" fill="#A4A4A4" d="M32.346,12.855c-0.622,5.572-1.193,10.688-1.773,15.881"/>
	</g>
</g>
</svg>
