<?xml version="1.0" encoding="utf-8"?>
<!-- Generator: Adobe Illustrator 16.0.0, SVG Export Plug-In . SVG Version: 6.00 Build 0)  -->
<!DOCTYPE svg PUBLIC "-//W3C//DTD SVG 1.1//EN" "http://www.w3.org/Graphics/SVG/1.1/DTD/svg11.dtd">
<svg version="1.1" id="Layer_1" xmlns="http://www.w3.org/2000/svg" xmlns:xlink="http://www.w3.org/1999/xlink" x="0px" y="0px"
	 width="73.559px" height="55.111px" viewBox="0 0 73.559 55.111" enable-background="new 0 0 73.559 55.111" xml:space="preserve">
<g id="_x38_1INDs_1_">
	<g>
		<path fill-rule="evenodd" clip-rule="evenodd" fill="#A7A9AC" d="M32.122,0.113c0.003-0.019,0.004-0.037,0.002-0.055
			c0.843,0,1.686,0,2.529,0c-0.003,0.019-0.002,0.037,0.001,0.056C33.811,0.113,32.967,0.113,32.122,0.113z"/>
		<path fill-rule="evenodd" clip-rule="evenodd" fill="#A7A9AC" d="M6.896,55.169c0.001-0.021,0.002-0.04,0.002-0.06
			c0.612,0,1.225,0.001,1.836,0.002c0,0.02,0,0.038,0,0.058C8.122,55.169,7.509,55.169,6.896,55.169z"/>
		<path fill-rule="evenodd" clip-rule="evenodd" fill="#A7A9AC" d="M0.114,23.161l-0.028-0.002l-0.028,0.001
			c0-0.402,0-0.804,0-1.207c0.019,0,0.038,0,0.058,0C0.115,22.355,0.114,22.758,0.114,23.161z"/>
		<path fill-rule="evenodd" clip-rule="evenodd" fill="#A7A9AC" d="M0.114,23.161c0-0.403,0.001-0.805,0.001-1.208
			c0.175-1.607,0.757-3.077,1.533-4.476c1.417-2.554,3.364-4.664,5.552-6.564c2.851-2.476,6.039-4.443,9.405-6.125
			c2.802-1.4,5.684-2.617,8.69-3.513c1.985-0.592,4.014-0.969,6.083-1.11c0.247-0.017,0.495-0.034,0.743-0.051
			c0.845,0,1.688,0,2.532,0c2.528,0.137,4.977,0.608,7.243,1.793c1.37,0.717,2.549,1.664,3.383,2.989
			c1.005,1.596,1.243,3.365,1.062,5.193c-0.33,3.308-1.89,6.046-4.067,8.472c-2.615,2.915-5.877,4.763-9.628,5.807
			c-2.523,0.702-5.082,1.111-7.707,1.03c-1.768-0.054-3.49-0.307-5.058-1.205c-0.908-0.519-1.714-1.154-2.321-2.019
			c-0.251-0.357-0.425-0.749-0.513-1.176c-0.019-0.093-0.034-0.192-0.021-0.284c0.044-0.323,0.359-0.46,0.607-0.253
			c0.212,0.177,0.393,0.39,0.593,0.582c0.893,0.855,1.992,1.307,3.167,1.597c1.763,0.436,3.532,0.338,5.302,0.051
			c2.532-0.411,4.949-1.182,7.219-2.384c2.651-1.404,4.954-3.227,6.687-5.708c0.91-1.302,1.603-2.708,1.777-4.309
			c0.229-2.092-0.406-3.557-2.263-4.545c-1.185-0.631-2.463-0.94-3.783-1.091c-3.398-0.389-6.694,0.158-9.942,1.117
			c-3.187,0.941-6.159,2.37-9.047,3.986c-2.176,1.218-4.272,2.557-6.194,4.153c-1.622,1.347-3.092,2.834-4.18,4.661
			c-0.787,1.32-1.268,2.736-1.341,4.284c-0.076,1.629,0.432,3.072,1.355,4.387c1.062,1.515,2.451,2.704,3.879,3.852
			c1.605,1.288,3.286,2.481,4.827,3.85c0.458,0.407,0.911,0.82,1.317,1.28c0.116,0.131,0.206,0.146,0.362,0.061
			c2.322-1.28,4.648-2.555,6.976-3.827c0.135-0.073,0.209-0.191,0.296-0.304c1.307-1.684,2.858-3.062,4.856-3.879
			c0.5-0.204,1.021-0.312,1.568-0.3c1.091,0.022,1.847,0.599,2.144,1.653c0.241,0.855,0.217,1.722,0.099,2.592
			c-0.008,0.057-0.024,0.112-0.027,0.17c-0.004,0.063-0.042,0.144,0.024,0.186c0.066,0.043,0.122-0.021,0.177-0.059
			c0.616-0.419,1.404-0.361,1.947,0.151c0.244,0.23,0.356,0.517,0.283,0.858c-0.222,1.039-0.539,2.054-0.805,3.081
			c-0.373,1.445-0.748,2.89-1.027,4.356c-0.113,0.597-0.122,1.199-0.087,1.803c0.006,0.1-0.012,0.243,0.108,0.269
			c0.114,0.023,0.171-0.109,0.222-0.195c0.165-0.279,0.326-0.562,0.477-0.851c1.11-2.123,2.051-4.325,3.031-6.508
			c1.051-2.34,2.105-4.679,3.097-7.045c0.302-0.718,0.469-1.477,0.647-2.23c0.079-0.335,0.258-0.539,0.579-0.643
			c1.028-0.333,2.078-0.413,3.146-0.262c0.197,0.028,0.389,0.101,0.561,0.212c0.329,0.214,0.399,0.402,0.276,0.771
			c-0.26,0.781-0.526,1.559-0.706,2.364c-0.24,1.076-0.138,2.147,0.018,3.222c0.131,0.902,0.556,1.685,0.947,2.482
			c0.121,0.247,0.183,0.048,0.234-0.04c0.506-0.857,1.018-1.712,1.507-2.579c0.908-1.609,1.804-3.225,2.543-4.923
			c0.293-0.675,0.37-1.404,0.595-2.096c0.073-0.227,0.16-0.453,0.207-0.687c0.078-0.39,0.334-0.588,0.687-0.691
			c0.996-0.29,2.01-0.375,3.038-0.226c0.158,0.023,0.315,0.083,0.462,0.151c0.419,0.197,0.519,0.446,0.378,0.881
			c-0.186,0.573-0.379,1.145-0.55,1.723c-0.348,1.169-0.33,2.35-0.171,3.553c0.168,1.274,0.803,2.344,1.353,3.455
			c0.201,0.406,0.214,0.398,0.633,0.209c1.701-0.768,3.482-1.201,5.348-1.317c2.058-0.128,4.054,0.117,5.954,0.938
			c1.951,0.843,3.515,2.138,4.47,4.07c0.704,1.427,0.979,2.927,0.45,4.478c-0.501,1.469-1.558,2.423-2.964,3.019
			c-0.179,0.076-0.366,0.105-0.561,0.107c-0.146,0.001-0.271-0.026-0.321-0.182c-0.049-0.153-0.011-0.288,0.123-0.381
			c0.267-0.187,0.548-0.354,0.805-0.552c1.094-0.849,1.766-1.921,1.63-3.354c-0.106-1.122-0.605-2.089-1.353-2.922
			c-1.129-1.258-2.577-1.975-4.189-2.359c-2.879-0.688-5.744-0.696-8.567,0.304c-0.036,0.013-0.071,0.028-0.108,0.037
			c-0.259,0.062-0.316,0.178-0.212,0.446c0.332,0.854,0.536,1.742,0.516,2.661c-0.023,1.046-0.446,1.949-1.112,2.741
			c-1.039,1.236-2.331,2.119-3.84,2.685c-0.447,0.168-0.889,0.353-1.358,0.458c-1.32,0.298-2.485-0.479-2.307-2.175
			c0.165-1.58,0.892-2.911,1.836-4.146c0.672-0.879,1.439-1.666,2.288-2.373c0.117-0.097,0.152-0.167,0.075-0.306
			c-0.971-1.741-1.561-3.613-1.902-5.569c-0.003-0.017-0.021-0.031-0.056-0.081c-0.166,0.312-0.324,0.607-0.479,0.905
			c-1.14,2.194-2.377,4.33-3.8,6.355c-0.111,0.157-0.062,0.283-0.004,0.427c0.333,0.817,0.602,1.652,0.697,2.537
			c0.222,2.059-0.464,3.743-2.139,4.963c-1.733,1.262-3.677,1.946-5.848,1.882c-0.369-0.011-0.726-0.077-1.032-0.3
			c-0.397-0.288-0.54-0.672-0.445-1.156c0.093-0.471,0.369-0.837,0.65-1.2c1.14-1.48,2.407-2.854,3.563-4.32
			c0.361-0.458,0.692-0.94,1.047-1.403c0.107-0.141,0.113-0.255,0.035-0.413c-0.431-0.876-0.897-1.737-1.235-2.654
			c-0.395-1.071-0.644-2.183-0.868-3.3c-0.007-0.033-0.016-0.067-0.042-0.177c-0.175,0.422-0.326,0.777-0.47,1.137
			c-1.685,4.212-3.698,8.264-5.933,12.208c-0.452,0.799-0.994,1.524-1.711,2.104c-0.408,0.33-0.858,0.586-1.414,0.534
			c-0.646-0.06-1.097-0.41-1.396-0.973c-0.308-0.579-0.413-1.21-0.471-1.852c-0.083-0.93-0.021-1.854,0.105-2.775
			c0.005-0.037,0.001-0.076-0.037-0.13c-0.118,0.28-0.236,0.561-0.355,0.841c-0.615,1.445-1.247,2.883-2.052,4.236
			c-0.275,0.462-0.606,0.877-1.038,1.215c-0.806,0.63-2.627,0.7-3.51-0.51c-0.838-1.146-1.306-2.437-1.619-3.801
			c-0.356-1.549-0.266-3.099-0.032-4.65c0.156-1.03,0.376-2.047,0.732-3.056c-0.144-0.018-0.224,0.058-0.309,0.104
			c-1.223,0.659-2.417,1.365-3.613,2.071c-0.114,0.066-0.203,0.117-0.12,0.285c0.565,1.145,0.788,2.378,0.852,3.637
			c0.126,2.491-0.34,4.863-1.595,7.041c-1.134,1.97-2.715,3.5-4.702,4.606c-1.38,0.77-2.854,1.242-4.432,1.382
			c-0.612-0.001-1.224-0.002-1.836-0.002c-0.59-0.062-1.175-0.156-1.747-0.32c-0.709-0.203-1.21-0.685-1.624-1.262
			c-0.902-1.259-1.18-2.677-1.02-4.196c0.238-2.259,1.35-4.047,2.979-5.565c2.441-2.273,5.271-3.96,8.213-5.481
			c0.204-0.105,0.401-0.226,0.61-0.32c0.248-0.111,0.107-0.198-0.005-0.291c-0.716-0.592-1.467-1.138-2.229-1.669
			c-1.978-1.381-3.993-2.71-5.871-4.228c-1.705-1.377-3.295-2.865-4.51-4.71C0.91,25.872,0.326,24.59,0.114,23.161z M16.378,42.626
			c-0.006-1.001-0.121-1.812-0.312-2.615c-0.042-0.178-0.097-0.211-0.267-0.11c-1.99,1.17-3.926,2.417-5.703,3.9
			c-1.143,0.954-2.145,2.021-2.773,3.394c-0.358,0.782-0.604,1.594-0.587,2.462c0.019,1.016,0.487,1.63,1.341,1.762
			c0.388,0.06,0.784,0.058,1.172-0.014c1.626-0.297,2.985-1.103,4.155-2.24C15.292,47.328,16.344,45.113,16.378,42.626z
			 M25.182,41.156c0.013,0.592,0.042,1.185,0.164,1.768c0.075,0.356,0.165,0.71,0.372,1.018c0.199,0.297,0.426,0.331,0.698,0.107
			c0.095-0.078,0.179-0.174,0.254-0.271c0.329-0.428,0.587-0.899,0.8-1.392c1.227-2.838,2.372-5.706,3.248-8.675
			c0.2-0.679,0.404-1.359,0.433-2.073c0.02-0.48-0.224-0.681-0.701-0.589c-0.352,0.068-0.668,0.227-0.968,0.42
			c-0.936,0.604-1.56,1.48-2.127,2.41C25.989,36.114,25.188,38.516,25.182,41.156z M54.771,38.185
			c0.022-0.312-0.055-0.665-0.143-1.02c-0.04-0.16-0.072-0.244-0.245-0.086c-1.286,1.183-2.155,2.62-2.644,4.291
			c-0.051,0.174-0.101,0.354-0.058,0.537c0.029,0.127,0.068,0.236,0.252,0.166C53.62,41.433,54.751,40.195,54.771,38.185z
			 M44.863,40.186c-0.092,0.104-0.13,0.145-0.164,0.188c-0.645,0.83-1.285,1.663-1.999,2.437c-0.461,0.499-0.911,1.006-1.365,1.51
			c-0.049,0.055-0.132,0.111-0.09,0.193c0.047,0.093,0.146,0.077,0.229,0.05c0.145-0.049,0.3-0.084,0.428-0.162
			c0.983-0.594,1.862-1.305,2.461-2.31C44.697,41.53,44.871,40.927,44.863,40.186z"/>
	</g>
</g>
</svg>
