<?xml version="1.0" encoding="utf-8"?>
<!-- Generator: Adobe Illustrator 16.0.0, SVG Export Plug-In . SVG Version: 6.00 Build 0)  -->
<!DOCTYPE svg PUBLIC "-//W3C//DTD SVG 1.1//EN" "http://www.w3.org/Graphics/SVG/1.1/DTD/svg11.dtd">
<svg version="1.1" id="Layer_1" xmlns="http://www.w3.org/2000/svg" xmlns:xlink="http://www.w3.org/1999/xlink" x="0px" y="0px"
	 width="73.559px" height="55.111px" viewBox="0 0 73.559 55.111" enable-background="new 0 0 73.559 55.111" xml:space="preserve">
<g id="_x38_1INDs_1_">
	<g>
		<path fill="#FFFFFF" d="M32.122,0.113c0.003-0.02,0.004-0.037,0.002-0.055c0.843,0,1.686,0,2.528,0
			c-0.003,0.019-0.002,0.036,0.001,0.056C33.811,0.113,32.967,0.113,32.122,0.113z"/>
		<path fill="#FFFFFF" d="M6.896,55.169c0.001-0.021,0.002-0.04,0.002-0.06c0.612,0,1.226,0.001,1.836,0.002c0,0.02,0,0.038,0,0.058
			C8.122,55.169,7.509,55.169,6.896,55.169z"/>
		<path fill="#FFFFFF" d="M0.114,23.161l-0.027-0.002L0.058,23.16c0-0.402,0-0.804,0-1.207c0.02,0,0.038,0,0.059,0
			C0.115,22.355,0.114,22.758,0.114,23.161z"/>
		<path fill="#FFFFFF" d="M0.114,23.161c0-0.403,0.002-0.805,0.002-1.208c0.175-1.606,0.757-3.077,1.532-4.476
			c1.417-2.555,3.364-4.664,5.553-6.564c2.851-2.476,6.038-4.443,9.404-6.125c2.803-1.399,5.685-2.617,8.69-3.513
			c1.984-0.592,4.014-0.969,6.083-1.11c0.247-0.017,0.495-0.034,0.743-0.051c0.845,0,1.688,0,2.531,0
			c2.528,0.137,4.978,0.608,7.243,1.793c1.37,0.717,2.549,1.664,3.383,2.989c1.006,1.596,1.243,3.364,1.062,5.192
			c-0.33,3.309-1.89,6.046-4.067,8.473c-2.614,2.915-5.877,4.763-9.628,5.807c-2.522,0.702-5.082,1.111-7.707,1.03
			c-1.768-0.055-3.489-0.308-5.058-1.205c-0.908-0.52-1.714-1.154-2.321-2.02c-0.251-0.356-0.425-0.749-0.513-1.176
			c-0.02-0.093-0.034-0.191-0.021-0.284c0.044-0.322,0.359-0.46,0.607-0.253c0.212,0.178,0.393,0.391,0.593,0.582
			c0.894,0.855,1.992,1.308,3.167,1.598c1.763,0.436,3.532,0.338,5.302,0.051c2.532-0.411,4.949-1.183,7.22-2.384
			c2.65-1.404,4.954-3.228,6.687-5.708c0.91-1.303,1.604-2.708,1.777-4.31c0.229-2.092-0.406-3.557-2.263-4.545
			c-1.186-0.631-2.464-0.939-3.783-1.091c-3.398-0.389-6.694,0.158-9.942,1.117c-3.187,0.94-6.159,2.37-9.047,3.985
			c-2.176,1.219-4.272,2.558-6.194,4.153c-1.622,1.347-3.092,2.834-4.18,4.661c-0.787,1.32-1.268,2.736-1.341,4.284
			c-0.076,1.629,0.432,3.071,1.354,4.387c1.062,1.515,2.451,2.704,3.879,3.852c1.605,1.288,3.286,2.481,4.827,3.851
			c0.458,0.407,0.911,0.82,1.317,1.28c0.116,0.131,0.206,0.146,0.362,0.061c2.321-1.28,4.647-2.555,6.976-3.827
			c0.135-0.073,0.209-0.19,0.296-0.304c1.307-1.685,2.858-3.062,4.856-3.879c0.5-0.204,1.021-0.312,1.567-0.3
			c1.091,0.021,1.848,0.599,2.145,1.652c0.241,0.855,0.217,1.723,0.099,2.592c-0.008,0.058-0.023,0.112-0.027,0.171
			c-0.004,0.062-0.042,0.144,0.024,0.186c0.066,0.043,0.122-0.021,0.177-0.059c0.616-0.419,1.404-0.361,1.947,0.15
			c0.244,0.23,0.356,0.518,0.283,0.858c-0.223,1.039-0.539,2.054-0.806,3.081c-0.372,1.444-0.747,2.89-1.026,4.355
			c-0.113,0.598-0.122,1.199-0.087,1.804c0.006,0.1-0.013,0.242,0.107,0.269c0.114,0.023,0.171-0.109,0.223-0.195
			c0.165-0.278,0.325-0.562,0.477-0.851c1.11-2.123,2.051-4.325,3.031-6.508c1.051-2.34,2.104-4.68,3.097-7.045
			c0.302-0.719,0.469-1.478,0.647-2.23c0.079-0.335,0.258-0.539,0.579-0.643c1.027-0.333,2.077-0.413,3.146-0.263
			c0.197,0.028,0.389,0.102,0.562,0.213c0.328,0.214,0.398,0.401,0.275,0.771c-0.26,0.781-0.525,1.559-0.706,2.364
			c-0.24,1.076-0.138,2.146,0.019,3.222c0.131,0.902,0.556,1.686,0.946,2.482c0.121,0.247,0.184,0.048,0.234-0.04
			c0.506-0.857,1.018-1.712,1.507-2.579c0.908-1.609,1.805-3.226,2.543-4.923c0.293-0.676,0.37-1.404,0.596-2.097
			c0.072-0.227,0.159-0.453,0.206-0.687c0.078-0.39,0.335-0.588,0.688-0.691c0.996-0.29,2.01-0.375,3.038-0.226
			c0.158,0.022,0.314,0.083,0.462,0.15c0.419,0.197,0.519,0.446,0.378,0.882c-0.186,0.572-0.379,1.145-0.55,1.723
			c-0.349,1.169-0.33,2.35-0.171,3.553c0.168,1.274,0.803,2.345,1.353,3.455c0.201,0.406,0.214,0.398,0.633,0.209
			c1.701-0.768,3.482-1.201,5.349-1.316c2.058-0.128,4.054,0.116,5.954,0.938c1.95,0.843,3.515,2.138,4.47,4.07
			c0.704,1.427,0.979,2.927,0.45,4.478c-0.501,1.47-1.559,2.423-2.964,3.02c-0.18,0.076-0.366,0.104-0.562,0.106
			c-0.146,0.001-0.271-0.025-0.321-0.182c-0.049-0.153-0.011-0.288,0.123-0.381c0.268-0.188,0.549-0.354,0.806-0.552
			c1.094-0.85,1.766-1.922,1.63-3.354c-0.106-1.122-0.605-2.089-1.354-2.922c-1.129-1.258-2.576-1.976-4.188-2.359
			c-2.879-0.688-5.744-0.695-8.567,0.305c-0.036,0.013-0.07,0.027-0.107,0.036c-0.26,0.062-0.316,0.179-0.212,0.446
			c0.331,0.854,0.535,1.742,0.516,2.661c-0.023,1.046-0.446,1.949-1.112,2.741c-1.039,1.235-2.331,2.119-3.84,2.685
			c-0.447,0.168-0.889,0.354-1.358,0.458c-1.319,0.298-2.484-0.479-2.307-2.175c0.165-1.58,0.893-2.911,1.836-4.146
			c0.672-0.88,1.439-1.666,2.288-2.373c0.117-0.098,0.152-0.167,0.075-0.307c-0.971-1.741-1.562-3.612-1.902-5.568
			c-0.003-0.018-0.021-0.031-0.056-0.081c-0.166,0.312-0.324,0.606-0.479,0.904c-1.14,2.194-2.377,4.33-3.8,6.355
			c-0.11,0.157-0.062,0.283-0.004,0.427c0.333,0.817,0.603,1.652,0.697,2.537c0.222,2.059-0.464,3.743-2.14,4.963
			c-1.732,1.262-3.677,1.946-5.848,1.882c-0.369-0.011-0.726-0.077-1.032-0.3c-0.396-0.288-0.54-0.672-0.444-1.156
			c0.093-0.471,0.369-0.837,0.649-1.199c1.141-1.48,2.407-2.854,3.563-4.32c0.36-0.458,0.691-0.94,1.047-1.403
			c0.106-0.141,0.113-0.255,0.035-0.413c-0.432-0.876-0.897-1.736-1.235-2.653c-0.395-1.071-0.644-2.184-0.868-3.301
			c-0.007-0.032-0.016-0.066-0.042-0.177c-0.175,0.422-0.326,0.777-0.47,1.137c-1.685,4.213-3.698,8.265-5.933,12.208
			c-0.452,0.8-0.994,1.524-1.711,2.104c-0.408,0.33-0.858,0.586-1.414,0.534c-0.646-0.061-1.098-0.41-1.396-0.974
			c-0.308-0.579-0.413-1.21-0.471-1.852c-0.083-0.93-0.021-1.854,0.104-2.775c0.005-0.037,0.001-0.075-0.037-0.13
			c-0.117,0.28-0.235,0.562-0.354,0.841c-0.615,1.445-1.247,2.884-2.052,4.236c-0.275,0.462-0.606,0.877-1.038,1.215
			c-0.807,0.63-2.627,0.7-3.51-0.51c-0.839-1.146-1.307-2.438-1.619-3.801c-0.356-1.549-0.267-3.1-0.032-4.65
			c0.156-1.03,0.376-2.047,0.731-3.056c-0.144-0.019-0.224,0.058-0.309,0.104c-1.223,0.659-2.417,1.365-3.613,2.071
			c-0.113,0.066-0.203,0.117-0.12,0.285c0.565,1.145,0.788,2.378,0.853,3.637c0.126,2.491-0.34,4.863-1.595,7.041
			c-1.135,1.97-2.716,3.5-4.702,4.606c-1.38,0.77-2.854,1.241-4.433,1.382c-0.611-0.001-1.224-0.002-1.836-0.002
			c-0.59-0.062-1.175-0.156-1.747-0.32c-0.709-0.203-1.21-0.685-1.624-1.262c-0.901-1.259-1.18-2.677-1.02-4.196
			c0.238-2.259,1.35-4.047,2.979-5.564c2.441-2.273,5.271-3.96,8.214-5.481c0.203-0.104,0.4-0.226,0.609-0.32
			c0.248-0.11,0.107-0.197-0.005-0.291c-0.716-0.592-1.467-1.138-2.229-1.669c-1.979-1.381-3.993-2.71-5.871-4.228
			c-1.705-1.377-3.295-2.865-4.511-4.71C0.91,25.872,0.326,24.59,0.114,23.161z M16.378,42.626
			c-0.006-1.001-0.121-1.812-0.312-2.615c-0.042-0.178-0.097-0.211-0.267-0.109c-1.99,1.17-3.926,2.417-5.703,3.899
			c-1.143,0.954-2.145,2.021-2.772,3.395c-0.358,0.782-0.604,1.594-0.588,2.462c0.02,1.016,0.487,1.63,1.342,1.762
			c0.388,0.061,0.783,0.059,1.172-0.014c1.626-0.297,2.984-1.104,4.154-2.24C15.292,47.328,16.344,45.113,16.378,42.626z
			 M25.182,41.156c0.013,0.592,0.042,1.185,0.164,1.768c0.075,0.356,0.165,0.71,0.372,1.019c0.199,0.297,0.426,0.331,0.698,0.106
			c0.095-0.077,0.179-0.174,0.254-0.271c0.329-0.428,0.587-0.899,0.8-1.393c1.227-2.838,2.372-5.705,3.248-8.675
			c0.2-0.679,0.404-1.358,0.433-2.072c0.021-0.48-0.224-0.682-0.7-0.59c-0.353,0.068-0.668,0.228-0.969,0.42
			c-0.936,0.604-1.56,1.48-2.127,2.41C25.989,36.114,25.188,38.516,25.182,41.156z M54.771,38.185
			c0.022-0.312-0.055-0.665-0.143-1.021c-0.04-0.16-0.072-0.244-0.245-0.086c-1.286,1.184-2.155,2.62-2.645,4.291
			c-0.051,0.174-0.101,0.354-0.058,0.537c0.029,0.127,0.068,0.236,0.252,0.166C53.62,41.433,54.751,40.195,54.771,38.185z
			 M44.863,40.186c-0.092,0.104-0.13,0.145-0.163,0.188c-0.646,0.83-1.285,1.663-1.999,2.438c-0.462,0.499-0.911,1.006-1.365,1.51
			c-0.049,0.055-0.132,0.111-0.09,0.193c0.047,0.093,0.146,0.076,0.229,0.05c0.146-0.049,0.3-0.084,0.428-0.162
			c0.983-0.594,1.862-1.305,2.461-2.311C44.697,41.53,44.871,40.927,44.863,40.186z"/>
	</g>
</g>
</svg>
