<?xml version="1.0" encoding="utf-8"?>
<!-- Generator: Adobe Illustrator 18.0.0, SVG Export Plug-In . SVG Version: 6.00 Build 0)  -->
<!DOCTYPE svg PUBLIC "-//W3C//DTD SVG 1.1//EN" "http://www.w3.org/Graphics/SVG/1.1/DTD/svg11.dtd">
<svg version="1.1" id="Layer_1" xmlns="http://www.w3.org/2000/svg" xmlns:xlink="http://www.w3.org/1999/xlink" x="0px" y="0px"
	 viewBox="0 0 178.9 178.9" enable-background="new 0 0 178.9 178.9" xml:space="preserve">
<g>
	<path fill="#999999" d="M104,78.2c9.5,0,19,0,28,0c-14.5,14.5-29,29-43.1,43.1c-13.6-13.6-28.1-28-43-42.8c9.7,0,19.2,0,29.3,0
		c0.1-2.5,0.3-4.4,0.3-6.3c0-18,0-36,0-54C75.6,4.9,80.5,0,93.7,0c22.5,0,45,0,67.5,0c12.5,0,17.7,5.2,17.7,17.6c0,48,0,96,0,144
		c0,12.1-5.3,17.3-17.4,17.3c-48,0-96,0-144,0C5.3,178.8,0,173.6,0,161.5c0-48,0-96,0-144C0,5.2,5.2,0.1,17.7,0c3.1,0,6.3,0,10.1,0
		c0,2.2,0,4.2,0,6.1c0,45.3,0,90.6,0,136c0,7.8,1.2,9,9,9c35.8,0,71.6,0,107.5,0c6.7,0,6.7,0,6.7-6.6c0-36.7,0-73.3,0-110
		c0-6.6,0-6.6-6.7-6.6c-12,0-24,0.1-36-0.1c-3.3,0-5,1-5,4.5c0.1,14.7,0,29.3,0.1,44C103.4,76.8,103.7,77.2,104,78.2z"/>
</g>
</svg>
