<?xml version="1.0" encoding="utf-8"?>
<!-- Generator: Adobe Illustrator 16.0.0, SVG Export Plug-In . SVG Version: 6.00 Build 0)  -->
<!DOCTYPE svg PUBLIC "-//W3C//DTD SVG 1.1//EN" "http://www.w3.org/Graphics/SVG/1.1/DTD/svg11.dtd">
<svg version="1.1" id="Layer_1" xmlns="http://www.w3.org/2000/svg" xmlns:xlink="http://www.w3.org/1999/xlink" x="0px" y="0px"
	 width="39.231px" height="41.213px" viewBox="-128.08 -64.214 39.231 41.213"
	 enable-background="new -128.08 -64.214 39.231 41.213" xml:space="preserve">
<g>
	<g>
		<g>
			<defs>
				<path id="SVGID_1_" d="M-679-131.018v25.87c0,1.115,0.914,2.121,2.036,2.244l15.694,1.727c1.125,0.124,2.037-0.811,2.037-2.09
					v-29.632c0-1.278-0.914-2.214-2.037-2.091l-15.694,1.727C-678.088-133.139-679-132.135-679-131.018z"/>
			</defs>
			<clipPath id="SVGID_2_">
				<use xlink:href="#SVGID_1_"  overflow="visible"/>
			</clipPath>
			<g clip-path="url(#SVGID_2_)">
				<path fill="#FFFFFF" d="M-661.071-97.166L-661.071-97.166c-0.211,0-0.424-0.012-0.639-0.035l-15.692-1.727
					c-3.14-0.344-5.6-3.076-5.6-6.22v-25.87c0-3.142,2.459-5.875,5.599-6.221l15.694-1.727c3.603-0.39,6.475,2.428,6.475,6.067
					v29.632c0,1.554-0.544,3.026-1.531,4.146C-657.859-97.878-659.429-97.166-661.071-97.166z M-675-106.711l11.768,1.294v-25.332
					L-675-129.455V-106.711z"/>
			</g>
		</g>
	</g>
</g>
<g>
	<g>
		<g>
			<defs>
				<path id="SVGID_3_" d="M-121,27.981v25.871c0,1.114,0.914,2.121,2.036,2.244l15.694,1.727c1.125,0.124,2.037-0.811,2.037-2.09
					V26.103c0-1.278-0.914-2.215-2.037-2.092l-15.694,1.727C-120.088,25.86-121,26.865-121,27.981z"/>
			</defs>
			<clipPath id="SVGID_4_">
				<use xlink:href="#SVGID_3_"  overflow="visible"/>
			</clipPath>
			<g clip-path="url(#SVGID_4_)">
				<path fill="#FFFFFF" d="M-103.071,61.834L-103.071,61.834c-0.21,0-0.424-0.012-0.639-0.035l-15.692-1.727
					c-3.14-0.345-5.6-3.076-5.6-6.22V27.981c0-3.143,2.459-5.875,5.599-6.221l15.694-1.727c3.603-0.391,6.475,2.428,6.475,6.066
					v29.633c0,1.554-0.544,3.025-1.531,4.146C-99.859,61.122-101.429,61.834-103.071,61.834z M-117,52.289l11.768,1.294V28.251
					L-117,29.545V52.289z"/>
			</g>
		</g>
	</g>
</g>
<g>
	<path fill="#FFFFFF" d="M-118.253-23.001c-3.798,0-7.359-2.849-7.359-7.55v-8.166c0-1.757-0.808-3.182-2.469-3.182v-3.42
		c1.661,0,2.469-1.422,2.469-3.18v-8.119c0-4.701,3.561-7.597,7.359-7.597h2.896v4.034h-2.896c-1.614,0-2.944,1.378-2.944,3.514
		v8.784c0,1.995-0.617,3.609-2.185,4.274c1.568,0.665,2.185,2.279,2.185,4.272v8.737c0,2.136,1.33,3.561,2.944,3.561h2.896v4.036
		H-118.253z"/>
	<path fill="#FFFFFF" d="M-101.573-27.038h2.896c1.614,0,2.99-1.425,2.99-3.561v-8.737c0-1.993,0.619-3.607,2.185-4.272
		c-1.566-0.665-2.185-2.279-2.185-4.274v-8.784c0-2.136-1.376-3.514-2.99-3.514h-2.896v-4.034h2.896
		c3.798,0,7.359,2.896,7.359,7.597v8.119c0,1.757,0.808,3.18,2.469,3.18v3.42c-1.661,0-2.469,1.424-2.469,3.182v8.166
		c0,4.701-3.561,7.55-7.359,7.55h-2.896V-27.038z"/>
</g>
</svg>
