<?xml version="1.0" encoding="utf-8"?>
<!-- Generator: Adobe Illustrator 16.0.0, SVG Export Plug-In . SVG Version: 6.00 Build 0)  -->
<!DOCTYPE svg PUBLIC "-//W3C//DTD SVG 1.1//EN" "http://www.w3.org/Graphics/SVG/1.1/DTD/svg11.dtd">
<svg version="1.1" id="Layer_1" xmlns="http://www.w3.org/2000/svg" xmlns:xlink="http://www.w3.org/1999/xlink" x="0px" y="0px"
	 width="73.559px" height="55.111px" viewBox="0 0 73.559 55.111" enable-background="new 0 0 73.559 55.111" xml:space="preserve">
<path fill-rule="evenodd" clip-rule="evenodd" fill="#A5A4A4" d="M56.229,16.117c0.004,0.153-0.055,0.339,0.214,0.333
	c0.075-0.001,0.052,0.093,0.063,0.149c0.039,0.176-0.056,0.422,0.256,0.462c0.035,0.005,0.048,0.18,0.072,0.275
	c0.011,0.238-0.095,0.535,0.294,0.581c-0.01,0.011-0.008,0.021,0.004,0.029c-0.021,0.185-0.042,0.37,0.243,0.331
	c0.021,0.174,0.043,0.348,0.064,0.522c-0.051,0.234,0.05,0.345,0.283,0.349c-0.023,0.187-0.031,0.374,0.032,0.556
	c-0.036,0.11-0.054,0.224,0.015,0.322c0.208,0.298,0.279,0.64,0.328,0.988c0.02,0.142,0.122,0.141,0.217,0.167
	c-0.005,0.018,0.001,0.033,0.016,0.044c-0.001,0.11,0.007,0.221-0.005,0.331c-0.022,0.217,0.087,0.288,0.282,0.277
	c0.007,0.104,0.014,0.208,0.02,0.313c0.032,0.218-0.149,0.538,0.271,0.571c0.01,0.196,0.02,0.392,0.028,0.587
	c0,0.11,0.011,0.222-0.004,0.331c-0.03,0.224,0.062,0.317,0.281,0.297c0.009,0.278,0.017,0.556,0.025,0.835
	c0,0.13,0.016,0.262-0.003,0.39c-0.035,0.231,0.078,0.303,0.282,0.299c0.005,0.278,0.012,0.556,0.019,0.834
	c0.003,0.412,0.021,0.824,0.004,1.235c-0.009,0.223,0.065,0.314,0.278,0.309c0,1.487-0.001,2.977-0.001,4.464
	c-0.215-0.008-0.287,0.086-0.277,0.308c0.018,0.391,0,0.781-0.003,1.173c-0.005,0.202-0.011,0.404-0.017,0.606
	c-0.2-0.005-0.306,0.063-0.282,0.294c0.021,0.205,0.001,0.414-0.001,0.622c-0.009,0.202-0.017,0.402-0.025,0.604
	c-0.188-0.017-0.31,0.032-0.278,0.258c0.014,0.098,0.006,0.199,0.007,0.298c-0.047,0.159-0.009,0.32-0.013,0.479
	c-0.003,0.112,0.04,0.172,0.155,0.173c0.077,0,0.145,0.019,0.137,0.115c-0.013,0.146,0.058,0.186,0.194,0.194
	c0.178,0.012,0.054,0.187,0.119,0.264c-0.024,0.215,0.048,0.34,0.289,0.306h0.004c-0.037,0.233,0.053,0.351,0.298,0.327
	c0.001,0.095-0.021,0.19,0.025,0.28c-0.041,0.228,0.063,0.319,0.283,0.306c0.006,0.062,0.012,0.121,0.018,0.183
	c0.011,0.136,0.011,0.136,0.228,0.117c0.024,0.104,0.049,0.207,0.073,0.311c-0.055,0.236,0.067,0.318,0.281,0.317
	c0.003,0.077,0.006,0.152,0.01,0.229c-0.074,0.259,0.06,0.355,0.294,0.373h0.004c-0.021,0.188-0.071,0.457,0.082,0.522
	c0.194,0.082,0.204,0.192,0.202,0.336c-0.004,0.216,0.08,0.333,0.303,0.338c-0.011,0.086-0.025,0.172,0.018,0.253
	c-0.027,0.188-0.045,0.502,0.065,0.527c0.289,0.065,0.217,0.265,0.221,0.414c0.005,0.21,0.09,0.28,0.281,0.265
	c0.011,0.129,0.035,0.258,0.027,0.385c-0.012,0.204,0.092,0.263,0.27,0.251c0.011,0.2,0.021,0.399,0.032,0.6
	c0.039,0.224-0.176,0.567,0.279,0.599l0.006,0.005c0.004,0.186,0.009,0.37,0.014,0.556c-0.001,0.108,0.009,0.218-0.005,0.325
	c-0.026,0.22,0.062,0.312,0.28,0.283c0.006,0.1,0.01,0.199,0.016,0.299c0.001,0.103,0.003,0.205,0.005,0.307
	c0.004,0.204,0.008,0.408,0.012,0.611c-0.001,0.218,0.015,0.438-0.005,0.653c-0.02,0.22,0.081,0.28,0.271,0.268
	c-0.002,0.782-0.004,1.564-0.007,2.347c-0.205-0.032-0.296,0.047-0.271,0.262c0.014,0.118,0.005,0.239,0.007,0.359
	c-0.011,0.198-0.021,0.397-0.031,0.596c-0.257-0.054-0.316,0.095-0.312,0.307c-0.24,0.046-0.287-0.105-0.301-0.291
	c0.049-0.228-0.061-0.312-0.273-0.301l-0.008-0.002c-0.01-0.102,0.028-0.21-0.038-0.305c-0.011-0.117,0.05-0.273-0.16-0.28
	c-0.054-0.002-0.097-0.049-0.089-0.102c0.035-0.265-0.167-0.207-0.307-0.233l-0.009,0.001c0.076-0.27-0.101-0.312-0.3-0.332
	c0.028-0.147,0.052-0.276-0.173-0.293c-0.155-0.012-0.04-0.227-0.161-0.286c0.009-0.109,0.044-0.229-0.129-0.243
	c-0.098-0.008-0.135-0.078-0.131-0.169c0.005-0.114-0.046-0.164-0.161-0.158c-0.09,0.004-0.162-0.033-0.171-0.13
	c-0.016-0.174-0.136-0.137-0.243-0.131c-0.109-0.09-0.337-0.026-0.326-0.288c0.003-0.088-0.171-0.044-0.267-0.049
	c-0.013-0.078-0.025-0.157-0.038-0.236c0.012-0.034,0-0.048-0.035-0.039c-0.082-0.005-0.165-0.01-0.248-0.015
	c0,0-0.005-0.009-0.005-0.008c0.015-0.21-0.089-0.297-0.294-0.299c-0.096,0-0.262-0.013-0.277-0.06
	c-0.118-0.356-0.407-0.212-0.637-0.241c-0.1-0.008-0.198-0.015-0.298-0.022c0.036-0.255-0.098-0.309-0.315-0.267
	c-0.104-0.003-0.207-0.006-0.311-0.009c-0.181-0.007-0.36-0.014-0.541-0.021c0.005-0.186-0.045-0.284-0.271-0.28
	c-0.815,0.016-1.633,0.015-2.449,0.004c-0.215-0.003-0.282,0.086-0.276,0.275c-0.202,0.008-0.403,0.016-0.605,0.023
	c-0.11,0-0.223,0.011-0.331-0.005c-0.226-0.03-0.314,0.069-0.301,0.283c-0.195,0.01-0.391,0.02-0.586,0.029
	c-0.103-0.007-0.207-0.032-0.305,0.024c-0.236-0.075-0.301,0.055-0.305,0.257c-0.138,0.025-0.348-0.081-0.352,0.193
	c-0.001,0.019-0.043,0.055-0.062,0.052c-0.403-0.071-0.694,0.237-1.002,0.384c-0.232,0.109-0.57,0.157-0.751,0.449
	c-0.071,0.114-0.343,0.104-0.522,0.152c-0.178-0.021-0.339-0.021-0.282,0.237c-0.133,0.062-0.376-0.048-0.368,0.236
	c0,0.011-0.03,0.033-0.044,0.031c-0.439-0.063-0.69,0.449-1.133,0.369c-0.216,0.05-0.57-0.188-0.578,0.284
	c-0.091,0.006-0.181,0.012-0.271,0.018c-0.205-0.03-0.376-0.022-0.312,0.264c-0.2,0.014-0.401,0.027-0.602,0.041
	c-0.215-0.043-0.365-0.009-0.311,0.266c-0.2,0.012-0.4,0.021-0.6,0.033c-0.103,0.004-0.204,0.008-0.306,0.012
	c-0.228-0.057-0.331,0.03-0.307,0.265c-0.184,0.007-0.369,0.014-0.553,0.021c-0.119,0-0.24,0.009-0.358-0.002
	c-0.205-0.019-0.3,0.059-0.264,0.271c-0.216,0.012-0.433,0.023-0.648,0.035c-0.185,0.003-0.37,0.005-0.555,0.009
	c-0.212,0.001-0.425,0.016-0.636-0.002c-0.213-0.019-0.287,0.076-0.286,0.269c-0.402,0.01-0.805,0.018-1.208,0.026
	c-1.357,0-2.715,0-4.073-0.001c-0.423-0.009-0.845-0.018-1.267-0.026c0.002-0.194-0.074-0.289-0.287-0.27
	c-0.211,0.019-0.424,0.004-0.637,0.004c-0.205-0.005-0.41-0.008-0.616-0.012l-0.005-0.003c-0.025-0.199-0.139-0.271-0.337-0.271
	c-0.394,0.002-0.785-0.019-1.178-0.03c-0.181-0.007-0.361-0.015-0.542-0.022c0.03-0.244-0.084-0.318-0.31-0.262
	c-0.104-0.004-0.208-0.007-0.312-0.012l-0.021-0.006c-0.062-0.227-0.224-0.291-0.44-0.281c-0.148,0.007-0.297-0.004-0.444-0.006
	c-0.104-0.003-0.207-0.008-0.311-0.011c-0.103-0.007-0.206-0.014-0.308-0.021c0.023-0.236-0.069-0.329-0.305-0.249
	c-0.201-0.059-0.409-0.035-0.613-0.052c0.02-0.234-0.063-0.337-0.305-0.239c-0.182-0.067-0.373-0.048-0.562-0.059
	c0.021-0.191-0.035-0.295-0.258-0.285c-0.111,0.005-0.276,0.051-0.34-0.058c-0.15-0.255-0.37-0.239-0.605-0.212
	c-0.096-0.063-0.207-0.021-0.31-0.041c0.021-0.218-0.08-0.297-0.295-0.292c-0.103,0.002-0.267,0.049-0.307-0.063
	c-0.082-0.229-0.272-0.195-0.436-0.232c-0.067-0.016-0.15,0.002-0.191-0.067c-0.138-0.231-0.349-0.246-0.581-0.209
	c-0.081-0.007-0.164-0.013-0.245-0.02c-0.025-0.217-0.091-0.382-0.363-0.281c-0.084-0.007-0.168-0.013-0.252-0.02
	c0.015-0.261-0.142-0.311-0.356-0.286c-0.084-0.006-0.168-0.012-0.251-0.018c0.009-0.213-0.07-0.327-0.304-0.271
	c-0.101-0.012-0.203-0.021-0.305-0.033c0.026-0.23-0.073-0.324-0.302-0.278c-0.101-0.01-0.202-0.021-0.302-0.03
	c0.046-0.254-0.086-0.314-0.305-0.281c-0.096-0.008-0.192-0.016-0.289-0.023c0.028-0.209-0.026-0.336-0.271-0.273l-0.024-0.009
	c-0.018-0.151,0-0.328-0.249-0.294c-0.052,0.007-0.102-0.036-0.14-0.092c-0.119-0.173-0.287-0.244-0.497-0.201
	c-0.094-0.058-0.201-0.024-0.3-0.042c0.022-0.166,0.019-0.31-0.215-0.29c-0.03,0.002-0.093-0.04-0.091-0.054
	c0.043-0.302-0.436-0.187-0.386-0.487c-0.324,0.05-0.502-0.212-0.742-0.343c-0.044-0.023-0.081-0.04-0.109-0.088
	c-0.137-0.23-0.322-0.404-0.594-0.464c-0.079-0.08-0.177-0.034-0.268-0.039c-0.028-0.269-0.341-0.558-0.638-0.593
	c-0.082-0.005-0.163-0.012-0.245-0.019c0.022-0.229-0.072-0.339-0.31-0.299c0.023-0.228-0.068-0.339-0.306-0.298
	c0.014-0.221-0.076-0.334-0.31-0.298c0.004-0.206-0.061-0.337-0.3-0.284c-0.091-0.066-0.199-0.021-0.296-0.044
	c0.005-0.135,0.061-0.301-0.177-0.285c-0.089,0.007-0.127-0.037-0.122-0.126c0.006-0.106-0.029-0.177-0.152-0.167
	c-0.116,0.009-0.163-0.046-0.157-0.159c0.003-0.063-0.014-0.131-0.092-0.128c-0.265,0.013-0.213-0.407-0.5-0.36
	c0.036-0.259-0.189-0.221-0.324-0.284c0.047-0.213-0.042-0.288-0.248-0.246c-0.004-0.014-0.013-0.018-0.026-0.013
	c-0.008-0.178-0.015-0.357-0.278-0.291c-0.048-0.152-0.027-0.377-0.303-0.304c0.002-0.205-0.039-0.366-0.304-0.306h0
	c0.017-0.22-0.049-0.357-0.304-0.307c-0.008-0.155,0.032-0.343-0.233-0.313c-0.064,0.007-0.071-0.062-0.069-0.112
	c0.005-0.118-0.024-0.201-0.166-0.188c-0.112,0.011-0.136-0.054-0.134-0.149c0.001-0.059,0-0.154-0.068-0.146
	c-0.253,0.032-0.211-0.176-0.267-0.305c0.062-0.253-0.09-0.293-0.287-0.288l-0.008-0.015c0.058-0.242-0.082-0.281-0.274-0.268
	c-0.057-0.103,0.068-0.311-0.178-0.305c-0.131,0.005-0.133-0.09-0.134-0.185c0-0.051-0.012-0.119-0.068-0.114
	c-0.228,0.019-0.208-0.16-0.248-0.293c-0.029-0.128,0.056-0.32-0.191-0.323c-0.055-0.001-0.081-0.06-0.08-0.111
	c0.002-0.221-0.138-0.2-0.284-0.172c-0.051-0.094,0.007-0.216-0.077-0.301c0.091-0.241-0.232-0.244-0.238-0.385
	c-0.008-0.235-0.138-0.219-0.291-0.21l-0.012-0.013c0.028-0.215-0.017-0.363-0.284-0.31c-0.032-0.1,0.047-0.226-0.072-0.304
	c0.036-0.196-0.038-0.296-0.245-0.281l-0.009-0.018c0.004-0.105,0.008-0.211,0.012-0.316c0.098,0.007,0.197,0.015,0.295,0.022
	l0.001,0.006c-0.021,0.228,0.087,0.316,0.307,0.285c0.085,0.021,0.244,0.038,0.246,0.065c0.021,0.322,0.295,0.227,0.466,0.293
	c0.047,0.019,0.108,0.018,0.109,0.08c0.002,0.255,0.187,0.179,0.327,0.184c-0.014,0.233,0.076,0.349,0.323,0.289l0.01,0.008
	c-0.012,0.207,0.045,0.341,0.292,0.278c0.1,0.009,0.2,0.019,0.3,0.028c-0.033,0.245,0.082,0.327,0.312,0.285
	c0.092,0.05,0.19,0.022,0.287,0.025c-0.051,0.273,0.101,0.318,0.321,0.285c0.072,0.065,0.235-0.012,0.243,0.074
	c0.025,0.302,0.285,0.181,0.425,0.27c0.234,0.148,0.457,0.312,0.739,0.36c0.009,0.002,0.014,0.035,0.018,0.055
	c0.018,0.116,0.1,0.145,0.199,0.143c0.376-0.007,0.58,0.43,0.974,0.379c0.011-0.001,0.036,0.026,0.037,0.042
	c0.011,0.202,0.173,0.14,0.286,0.184c0.113,0.043,0.304-0.062,0.333,0.118c0.025,0.161,0.113,0.147,0.226,0.17
	c0.16,0.033,0.411-0.07,0.423,0.241c0.002,0.052,0.082,0.042,0.13,0.045c0.151,0.011,0.303,0.02,0.454,0.029
	c-0.037,0.26,0.105,0.306,0.318,0.267c0.103,0.009,0.205,0.018,0.307,0.026c-0.025,0.235,0.101,0.298,0.308,0.269
	c0.082,0.003,0.164,0.006,0.246,0.01c0.102,0.007,0.204,0.015,0.306,0.021c-0.016,0.221,0.067,0.329,0.301,0.268
	c0.103,0.005,0.204,0.011,0.307,0.017c0.102,0.007,0.205,0.014,0.307,0.021c-0.038,0.245,0.076,0.319,0.301,0.269
	c0.102,0.004,0.204,0.008,0.306,0.013c0.104,0.006,0.209,0.014,0.313,0.021c-0.033,0.237,0.071,0.316,0.296,0.259
	c0.1,0.04,0.203,0.025,0.306,0.018c0.186,0.009,0.373,0.018,0.559,0.027c-0.011,0.216,0.051,0.341,0.297,0.238
	c0.114,0.074,0.24,0.04,0.363,0.037c0.279,0.012,0.558,0.022,0.836,0.035c-0.02,0.164,0.026,0.259,0.219,0.254
	c0.136-0.002,0.271,0.038,0.408,0.009c0.303,0.012,0.604,0.024,0.906,0.037c0.004,0.106-0.027,0.235,0.147,0.233
	c0.259-0.003,0.516,0.076,0.775,0.021c0.689,0.02,1.378,0.039,2.067,0.058c-0.038,0.151,0.008,0.228,0.178,0.227
	c0.879-0.003,1.759-0.003,2.638,0.001c0.168,0,0.217-0.073,0.178-0.227c0.608-0.018,1.218-0.034,1.826-0.052
	c0.24,0.045,0.478-0.026,0.717-0.016c0.183,0.009,0.225-0.088,0.207-0.243c0.382-0.011,0.768,0.037,1.144-0.065
	c0.106,0.04,0.211,0.061,0.308-0.022c0.414,0.098,0.534,0.05,0.594-0.237c0.09-0.004,0.179-0.009,0.27-0.013
	c0.196-0.006,0.394-0.018,0.591-0.016c0.191,0.002,0.282-0.083,0.276-0.272l0.021,0.001L34,39.804
	c0.122-0.007,0.251,0.041,0.361-0.048c0.267,0.115,0.24-0.069,0.237-0.23c0.105-0.009,0.211-0.017,0.317-0.025
	c0.205,0.025,0.383,0.018,0.324-0.272c0.198-0.014,0.396-0.027,0.595-0.041c0.224,0.05,0.331-0.027,0.292-0.267
	c0.104-0.01,0.207-0.02,0.312-0.03c0.227,0.048,0.341-0.035,0.315-0.275c0.099-0.001,0.2,0.022,0.295-0.025
	c0.233,0.055,0.331-0.049,0.319-0.277c0.098,0.005,0.197,0.024,0.289-0.029c0.245,0.068,0.305-0.077,0.32-0.274
	c0.077-0.006,0.154-0.012,0.231-0.017c0.219,0.024,0.345-0.05,0.313-0.292c0.063-0.162,0.076-0.297-0.155-0.315
	c-0.037-0.002-0.104-0.028-0.103-0.04c0.02-0.253-0.197-0.221-0.336-0.28c0.025-0.134,0.031-0.211-0.15-0.28
	c-0.169-0.063-0.353-0.238-0.435-0.391c-0.088-0.164-0.171-0.15-0.294-0.148c-0.129-0.067-0.36-0.011-0.321-0.283
	c0.01-0.062-0.095-0.049-0.153-0.054s-0.145,0.004-0.135-0.077c0.036-0.278-0.176-0.198-0.313-0.228
	c0.039-0.239-0.071-0.326-0.298-0.292l-0.019-0.017c0.05-0.239-0.067-0.309-0.283-0.278c-0.005-0.014-0.015-0.021-0.027-0.021
	c0.04-0.225-0.068-0.301-0.277-0.274c-0.074-0.08-0.266,0.038-0.269-0.117c-0.003-0.24-0.164-0.202-0.304-0.22
	c0.038-0.228-0.044-0.333-0.284-0.279c-0.005-0.013-0.013-0.018-0.027-0.015c0.022-0.2-0.037-0.317-0.266-0.259l-0.009-0.014
	c0.059-0.337-0.306-0.383-0.448-0.573c-0.093-0.124-0.212-0.41-0.483-0.397c0.009-0.261-0.198-0.19-0.34-0.222
	c-0.07-0.068-0.253,0.032-0.24-0.155c0.009-0.134-0.048-0.183-0.177-0.171c-0.084,0.008-0.138-0.028-0.13-0.12
	c0.011-0.124-0.032-0.191-0.169-0.178c-0.081,0.009-0.145-0.021-0.135-0.114c0.015-0.15-0.056-0.196-0.194-0.185
	c-0.07,0.007-0.117-0.031-0.111-0.106c0.014-0.141-0.039-0.207-0.188-0.192c-0.068,0.006-0.122-0.029-0.115-0.104
	c0.022-0.235-0.146-0.19-0.279-0.196c0.015-0.207-0.027-0.358-0.288-0.293l-0.019-0.01c-0.011-0.141,0.045-0.324-0.208-0.304
	c-0.078,0.007-0.097-0.059-0.095-0.124c0.002-0.107-0.036-0.175-0.155-0.169c-0.098,0.005-0.154-0.034-0.148-0.139
	c0.007-0.117-0.051-0.163-0.163-0.161c-0.062,0.001-0.134-0.009-0.132-0.088c0.006-0.225-0.144-0.198-0.287-0.187l-0.003-0.01
	c0.01-0.22-0.056-0.363-0.313-0.318c0.031-0.23-0.074-0.314-0.295-0.278l-0.001-0.003c0.018-0.22-0.058-0.348-0.305-0.301
	l-0.002-0.002c0.027-0.229-0.061-0.342-0.302-0.303l-0.002-0.002c0.034-0.236-0.068-0.335-0.303-0.303l-0.002-0.003
	c0.046-0.246-0.075-0.326-0.302-0.304l-0.002-0.001c0.054-0.253-0.083-0.318-0.301-0.306v-0.001
	c-0.009-0.126,0.066-0.301-0.173-0.293c-0.074,0.001-0.104-0.048-0.104-0.116c0.001-0.115-0.03-0.195-0.168-0.187
	c-0.063,0.004-0.131-0.014-0.126-0.091c0.015-0.238-0.14-0.22-0.296-0.206l-0.008-0.007c0.036-0.232-0.052-0.343-0.295-0.3
	l-0.006-0.006c0.048-0.246-0.064-0.333-0.298-0.302c-0.001-0.14,0.029-0.298-0.197-0.286c-0.102,0.006-0.102-0.076-0.104-0.149
	c-0.001-0.062-0.011-0.147-0.082-0.137c-0.246,0.035-0.2-0.162-0.244-0.287c0.031-0.223-0.066-0.318-0.288-0.289l-0.01-0.014
	c0.028-0.223-0.063-0.327-0.292-0.294l-0.01-0.012c0.034-0.229-0.063-0.327-0.293-0.297l-0.008-0.009
	c0.039-0.233-0.064-0.328-0.293-0.3l-0.008-0.007c0.048-0.243-0.071-0.323-0.294-0.302l-0.005,0
	c0.058-0.258-0.095-0.312-0.303-0.312c0.009-0.143,0.027-0.291-0.193-0.28c-0.054,0.003-0.091-0.038-0.094-0.096
	c-0.01-0.252-0.374-0.238-0.374-0.497c-0.205,0.02-0.193-0.146-0.23-0.27c-0.008-0.153,0.028-0.333-0.22-0.335
	c-0.053,0-0.079-0.061-0.077-0.113c0.005-0.122-0.037-0.188-0.171-0.181c-0.066,0.003-0.122-0.03-0.12-0.103
	c0.006-0.229-0.156-0.181-0.29-0.183l-0.006-0.001c0.021-0.22-0.048-0.354-0.3-0.31c-0.041-0.094,0.057-0.267-0.081-0.284
	c-0.178-0.022-0.245-0.074-0.233-0.252c0.005-0.081-0.08-0.077-0.137-0.073c-0.121,0.008-0.158-0.051-0.152-0.162
	c0.003-0.056,0.009-0.151-0.067-0.14c-0.258,0.038-0.2-0.179-0.262-0.301c0.055-0.247-0.082-0.307-0.29-0.297l-0.006-0.008
	c-0.018-0.098,0.069-0.254-0.088-0.276c-0.166-0.023-0.18-0.109-0.197-0.24c-0.013-0.093-0.065-0.252-0.114-0.258
	c-0.261-0.032-0.306-0.295-0.438-0.432c-0.192-0.199-0.328-0.457-0.587-0.602c-0.028-0.015-0.05-0.066-0.05-0.101
	c0.002-0.122-0.037-0.192-0.172-0.184c-0.068,0.003-0.122-0.032-0.119-0.105c0.008-0.23-0.155-0.186-0.291-0.187
	c-0.021-0.145,0.039-0.342-0.229-0.319c-0.081,0.007-0.069-0.081-0.075-0.138c-0.005-0.057,0.003-0.153-0.064-0.146
	c-0.246,0.025-0.212-0.171-0.263-0.303c0.043-0.234-0.066-0.321-0.29-0.297l-0.004-0.007c0.049-0.245-0.072-0.325-0.296-0.307
	c-0.011-0.138,0.057-0.312-0.2-0.308c-0.152,0.002-0.062-0.164-0.114-0.239c0.009-0.205-0.077-0.319-0.293-0.308l0-0.001
	c0.012-0.209-0.059-0.339-0.295-0.312l-0.018,0.011c0,0,0.017-0.012,0.017-0.012c0.04-0.239-0.101-0.309-0.301-0.323
	c-0.003-0.144,0.037-0.315-0.206-0.298c-0.023,0.001-0.073-0.049-0.073-0.075c0-0.151-0.052-0.226-0.216-0.251
	c-0.114-0.018-0.02-0.187-0.107-0.253c-0.005-0.139,0.058-0.319-0.194-0.304c-0.058,0.003-0.096-0.043-0.089-0.097
	c0.027-0.245-0.14-0.213-0.29-0.209c-0.023-0.144,0.04-0.347-0.229-0.318c-0.064,0.007-0.077-0.058-0.073-0.107
	c0.014-0.165-0.071-0.212-0.217-0.199c-0.19,0.017-0.108-0.15-0.155-0.23c0.133-0.268,0.012-0.357-0.246-0.35l-0.006-0.012
	c0.056-0.248-0.073-0.321-0.292-0.306c-0.005-0.133,0.048-0.288-0.187-0.289c-0.177,0-0.061-0.183-0.124-0.262
	c-0.023-0.143,0.054-0.347-0.216-0.334c-0.024,0.001-0.074-0.055-0.072-0.08c0.025-0.25-0.168-0.196-0.302-0.224
	c-0.003-0.092,0.021-0.188-0.028-0.275c0.003-0.103,0.007-0.205,0.011-0.308c0.104-0.003,0.208-0.008,0.312-0.012l0.011,0.01
	c-0.033,0.226,0.06,0.327,0.289,0.292c0.126,0.059,0.333,0.027,0.298,0.266c0.26-0.022,0.25,0.328,0.48,0.348
	c0.051,0.004,0.119,0.021,0.111,0.076c-0.037,0.277,0.204,0.179,0.321,0.246c0.004,0.111-0.054,0.257,0.146,0.262
	c0.121,0.003,0.143,0.085,0.144,0.186c0.001,0.068,0.036,0.114,0.108,0.118c0.245,0.014,0.213,0.391,0.485,0.369
	c-0.001,0.25,0.195,0.196,0.34,0.222c0.111,0.039,0.28-0.003,0.266,0.206c-0.006,0.095,0.074,0.107,0.149,0.11
	c0.063,0.002,0.139,0.01,0.133,0.089c-0.018,0.253,0.161,0.2,0.305,0.206c-0.018,0.223,0.06,0.347,0.307,0.297l0.005,0.003
	c-0.026,0.229,0.068,0.333,0.302,0.293l0.011,0.008c-0.025,0.221,0.063,0.324,0.291,0.282c0.125,0.059,0.313,0.009,0.313,0.26
	c0,0.125,0.189,0.042,0.287,0.078c0.004,0.133-0.047,0.299,0.184,0.292c0.072-0.002,0.109,0.047,0.109,0.115
	c0,0.13,0.065,0.176,0.188,0.171c0.076-0.003,0.106,0.048,0.151,0.112c0.148,0.21,0.32,0.403,0.593,0.458l0.006,0.005
	c0.002,0.21,0.155,0.295,0.321,0.316c0.271,0.036,0.379,0.284,0.531,0.434c0.106,0.106,0.181,0.133,0.3,0.147
	c0.12,0.063,0.321-0.008,0.317,0.254c-0.001,0.131,0.185,0.049,0.282,0.074c-0.023,0.233,0.071,0.341,0.312,0.295l0.005,0.004
	c-0.027,0.229,0.068,0.331,0.302,0.291c0.112,0.059,0.33-0.024,0.29,0.238c-0.014,0.093,0.093,0.083,0.16,0.085
	c0.075,0.003,0.149,0.009,0.145,0.108c-0.012,0.242,0.167,0.167,0.293,0.181c0.015,0.263,0.349,0.571,0.637,0.588
	c0.117,0.043,0.273,0.008,0.291,0.221c0.011,0.134,0.194,0.05,0.282,0.112c-0.017,0.146-0.039,0.294,0.189,0.276
	c0.079-0.006,0.141,0.039,0.147,0.119c0.016,0.174,0.14,0.135,0.246,0.136c0.131,0.067,0.331,0.033,0.331,0.287
	c0,0.083,0.175,0.038,0.271,0.043l-0.001,0.004c0.025,0.141-0.038,0.344,0.229,0.312c0.054-0.007,0.098,0.035,0.097,0.091
	c-0.006,0.235,0.17,0.161,0.293,0.177c0.082,0.077,0.279-0.037,0.279,0.104c0,0.27,0.183,0.201,0.324,0.226
	c-0.042,0.251,0.09,0.318,0.31,0.291l0.008,0.005c-0.021,0.22,0.076,0.317,0.297,0.287c0.094,0.01,0.188,0.02,0.281,0.03
	c-0.03,0.214,0.034,0.332,0.274,0.277l0.016,0.009c-0.012,0.203,0.029,0.352,0.286,0.276c0.079,0.087,0.276-0.019,0.281,0.106
	c0.01,0.261,0.201,0.194,0.336,0.237c-0.005,0.14-0.044,0.301,0.191,0.283c0.065-0.005,0.125,0.024,0.122,0.101
	c-0.008,0.247,0.16,0.173,0.293,0.165c0.087,0.08,0.201,0.023,0.297,0.058c-0.061,0.274,0.095,0.303,0.306,0.27
	c0.065,0.084,0.242-0.028,0.249,0.104c0.013,0.242,0.164,0.209,0.315,0.201c-0.008,0.232,0.093,0.341,0.332,0.293l0.001,0.006
	c0.026,0.28,0.312,0.543,0.62,0.571c0.083,0.008,0.167,0.015,0.25,0.023c-0.004,0.203,0.044,0.35,0.298,0.282
	c0.082,0.075,0.276-0.021,0.279,0.093c0.008,0.268,0.182,0.222,0.339,0.234c-0.033,0.231,0.057,0.334,0.295,0.281
	c0.083,0.075,0.278-0.031,0.278,0.092c0.002,0.28,0.194,0.208,0.341,0.236c-0.046,0.247,0.074,0.315,0.295,0.276
	c0.082,0.073,0.27-0.036,0.276,0.1c0.011,0.258,0.178,0.206,0.325,0.214c-0.015,0.178,0.011,0.312,0.245,0.292
	c0.125-0.011,0.254,0.015,0.382,0.023c-0.002,0.01-0.007,0.02-0.007,0.03c-0.01,0.101-0.036,0.212,0.122,0.217
	c0.087,0.002,0.136-0.038,0.129-0.126c-0.013-0.182-0.144-0.123-0.248-0.117c0.019-0.217-0.017-0.382-0.299-0.309
	c-0.028-0.141,0.058-0.353-0.221-0.332c-0.083,0.006-0.089-0.072-0.086-0.132c0.004-0.113-0.04-0.175-0.158-0.166
	c-0.106,0.009-0.146-0.042-0.143-0.143c0.002-0.059,0.003-0.153-0.068-0.145c-0.254,0.032-0.206-0.18-0.268-0.304
	c0.042-0.229-0.061-0.314-0.281-0.285l-0.014-0.018c0.044-0.236-0.067-0.319-0.289-0.291l-0.012-0.017
	c0.053-0.245-0.071-0.315-0.29-0.292L32.224,23c0.058-0.254-0.085-0.312-0.296-0.305l-0.002-0.003c0.065-0.262-0.096-0.307-0.3-0.31
	c-0.001-0.124,0.05-0.279-0.169-0.269c-0.067,0.003-0.115-0.03-0.118-0.106c-0.012-0.25-0.374-0.236-0.372-0.496
	c-0.237,0.037-0.186-0.179-0.253-0.291c-0.017-0.129,0.033-0.298-0.192-0.294c-0.059,0.001-0.084-0.058-0.081-0.108
	c0.015-0.23-0.141-0.195-0.28-0.186l-0.012-0.005c0.016-0.211-0.029-0.364-0.293-0.307c-0.023-0.147,0.033-0.346-0.237-0.318
	c-0.079,0.008-0.064-0.084-0.07-0.141c-0.006-0.059,0.002-0.154-0.071-0.145c-0.26,0.033-0.202-0.185-0.261-0.309
	c0.057-0.244-0.076-0.301-0.282-0.286l-0.01-0.018c0.059-0.251-0.079-0.31-0.291-0.295l-0.006-0.012
	c0.054-0.238-0.066-0.298-0.274-0.268c-0.033-0.14,0.027-0.344-0.239-0.321c-0.075,0.007-0.073-0.081-0.074-0.141
	c-0.002-0.072-0.004-0.161-0.102-0.151c-0.234,0.025-0.165-0.172-0.218-0.281c0.028-0.223-0.069-0.324-0.292-0.307l-0.003-0.003
	c-0.001-0.166,0.023-0.354-0.248-0.286c-0.069-0.141-0.022-0.383-0.3-0.341c0.028-0.284-0.37-0.304-0.358-0.579
	c0.05-0.222-0.027-0.327-0.263-0.285l-0.019-0.018c0.035-0.222-0.037-0.343-0.283-0.299c0,0-0.009-0.011-0.008-0.011
	c0.039-0.23-0.044-0.345-0.29-0.307c-0.012-0.14,0.042-0.306-0.199-0.319c-0.176-0.01-0.041-0.214-0.139-0.288
	c0.074-0.262-0.1-0.277-0.282-0.284l-0.006-0.019c0.062-0.254-0.092-0.277-0.28-0.264c-0.022-0.14,0.051-0.324-0.217-0.324
	c-0.152,0-0.038-0.19-0.11-0.268c0.032-0.225-0.072-0.319-0.291-0.304l-0.002-0.003c0.037-0.234-0.067-0.333-0.297-0.314
	c-0.011-0.136,0.062-0.304-0.195-0.307c-0.172-0.001-0.036-0.215-0.136-0.289c-0.011-0.102,0.033-0.231-0.14-0.247
	c-0.062-0.005-0.124-0.053-0.116-0.116c0.031-0.28-0.183-0.22-0.333-0.249c-0.019-0.132-0.031-0.22-0.175-0.334
	c-0.136-0.108-0.386-0.256-0.388-0.517c0.01-0.21-0.013-0.393-0.301-0.338c-0.006-0.143,0.032-0.296-0.207-0.305
	C21.689,10.104,21.8,9.92,21.73,9.841c0.03-0.218-0.054-0.329-0.285-0.299l-0.003-0.005c0.035-0.229-0.05-0.346-0.294-0.313
	C21.139,9.074,21.2,8.9,20.931,8.897c-0.146-0.001-0.028-0.196-0.105-0.275c0.045-0.237-0.069-0.321-0.29-0.305l-0.001-0.001
	c0.056-0.25-0.073-0.329-0.296-0.321c0.001-0.096,0.029-0.196-0.036-0.284c0.067-0.251-0.1-0.283-0.281-0.3l-0.003-0.005
	c0.068-0.256-0.099-0.3-0.291-0.322c0.01-0.141,0.047-0.286-0.181-0.294c-0.15-0.005-0.06-0.17-0.121-0.242
	c-0.005-0.1-0.01-0.201-0.016-0.302c0.105-0.007,0.21-0.015,0.315-0.022l0.017,0.017c-0.048,0.24,0.062,0.323,0.289,0.287
	l0.014,0.019c-0.053,0.241,0.072,0.293,0.276,0.263c0.002,0.021,0.012,0.037,0.029,0.048c-0.018,0.133-0.045,0.272,0.162,0.275
	c0.064,0,0.125,0.024,0.122,0.101c-0.007,0.239,0.171,0.165,0.297,0.18V7.41c-0.018,0.222,0.062,0.345,0.306,0.303l0,0
	c-0.023,0.227,0.068,0.339,0.306,0.303v0.001c-0.027,0.231,0.074,0.332,0.306,0.302l0.001,0.001
	c-0.035,0.238,0.078,0.328,0.304,0.302l0.002,0.001c-0.037,0.241,0.086,0.318,0.304,0.3l0.004,0.003
	c0.021,0.125-0.046,0.304,0.192,0.294c0.073-0.003,0.091,0.069,0.095,0.132c0.013,0.193,0.139,0.16,0.263,0.133
	c0.274,0.122,0.423,0.409,0.649,0.55c0.186,0.116,0.223,0.38,0.466,0.397c0.079,0.005,0.096,0.062,0.094,0.127
	c-0.005,0.116,0.05,0.167,0.163,0.162c0.101-0.004,0.151,0.041,0.144,0.144c-0.01,0.125,0.063,0.154,0.17,0.152
	c0.062-0.001,0.137,0.012,0.131,0.089c-0.021,0.251,0.151,0.205,0.297,0.206c-0.015,0.221,0.061,0.351,0.31,0.303l0.001,0.001
	c-0.026,0.231,0.071,0.335,0.306,0.3l0.003,0.002c-0.033,0.238,0.081,0.325,0.305,0.299l0.004,0.003
	c-0.032,0.234,0.083,0.32,0.303,0.298l0.007,0.005c-0.029,0.227,0.084,0.311,0.298,0.292c0.117,0.04,0.297-0.003,0.271,0.221
	c-0.008,0.069,0.058,0.104,0.124,0.099c0.127-0.01,0.17,0.044,0.18,0.171c0.014,0.189,0.179,0.105,0.282,0.132
	c-0.04,0.243,0.067,0.333,0.302,0.292l0.009,0.009c0.006,0.133-0.05,0.303,0.187,0.289c0.09-0.005,0.125,0.051,0.12,0.133
	c-0.006,0.119,0.054,0.162,0.165,0.158c0.077-0.002,0.146,0.021,0.142,0.114c-0.008,0.246,0.159,0.17,0.29,0.163
	c0.118,0.069,0.343,0.023,0.297,0.271c0.277-0.038,0.246,0.358,0.501,0.357c0.096,0,0.104,0.075,0.104,0.15
	c0,0.08,0.021,0.144,0.115,0.137c0.139-0.01,0.193,0.044,0.202,0.188c0.012,0.181,0.169,0.081,0.261,0.107
	c-0.016,0.248,0.107,0.341,0.344,0.308l0.006,0.003c-0.035,0.237,0.084,0.315,0.301,0.294c0.128,0.025,0.293-0.007,0.271,0.219
	c-0.01,0.094,0.086,0.091,0.157,0.094c0.06,0.003,0.142-0.002,0.135,0.08c-0.02,0.245,0.158,0.207,0.301,0.224
	c-0.045,0.244,0.069,0.327,0.297,0.292l0.011,0.009c-0.038,0.235,0.076,0.314,0.294,0.286c0.308-0.036,0.287,0.421,0.591,0.394
	c-0.041,0.276,0.217,0.158,0.32,0.244c-0.035,0.193,0.021,0.296,0.237,0.241c0.015,0.012,0.03,0.017,0.051,0.016
	c0.032,0.253,0.358,0.558,0.622,0.583c0.077,0.073,0.264-0.042,0.268,0.122c0.005,0.224,0.137,0.203,0.28,0.192
	c0.007,0.201,0.054,0.36,0.312,0.293l0.011,0.008c-0.006,0.199,0.033,0.352,0.288,0.285c0.079,0.083,0.277-0.026,0.279,0.108
	c0.003,0.268,0.171,0.217,0.326,0.222c-0.034,0.244,0.074,0.338,0.312,0.295l0.006,0.009c-0.045,0.249,0.077,0.318,0.3,0.283
	l0.016,0.014c-0.038,0.23,0.094,0.267,0.278,0.247c0.069,0.112,0.277-0.004,0.279,0.102c0.004,0.264,0.188,0.229,0.34,0.265
	c-0.059,0.258,0.109,0.269,0.29,0.264c0.006,0.02,0.017,0.034,0.036,0.041c-0.062,0.254,0.072,0.293,0.278,0.253
	c0.072,0.064,0.244-0.021,0.246,0.103c0.004,0.263,0.188,0.193,0.329,0.215c-0.014,0.239,0.119,0.315,0.334,0.296
	c0.062,0.066,0.222-0.021,0.224,0.103c0.004,0.251,0.164,0.206,0.314,0.199c-0.009,0.222,0.065,0.354,0.317,0.292l0.008,0.009
	c-0.022,0.222,0.058,0.335,0.296,0.282c0.08,0.081,0.275-0.027,0.276,0.095c0.002,0.271,0.174,0.225,0.332,0.229
	c-0.039,0.248,0.078,0.331,0.311,0.292l0.012,0.011c-0.039,0.234,0.07,0.313,0.29,0.277c0.096,0.012,0.192,0.024,0.289,0.036
	c-0.035,0.213,0.025,0.332,0.268,0.271c0.006,0.012,0.016,0.017,0.028,0.013c-0.048,0.272,0.105,0.319,0.327,0.292
	c0.083,0.011,0.166,0.021,0.249,0.032c-0.051,0.259,0.083,0.313,0.303,0.273c0.003,0.013,0.012,0.018,0.024,0.017
	c0.004,0.239,0.365,0.55,0.648,0.561c0.086,0.018,0.173,0.036,0.258,0.054c-0.062,0.263,0.076,0.295,0.285,0.245
	c0.074,0.09,0.271-0.021,0.274,0.104c0.009,0.261,0.17,0.211,0.322,0.209c-0.018,0.231,0.086,0.33,0.316,0.288l0.014,0.013
	c-0.014,0.208,0.07,0.313,0.29,0.271c0.082,0.045,0.172,0.023,0.259,0.024c0.008,0.23,0.109,0.348,0.354,0.296
	c0.094,0.009,0.188,0.019,0.281,0.028c-0.033,0.213,0.035,0.324,0.27,0.271c0.007,0.011,0.017,0.015,0.028,0.013
	c-0.035,0.379,0.243,0.277,0.442,0.281c0.238,0.004,0.141-0.157,0.122-0.275c0.057-0.101,0.019-0.212,0.035-0.317
	c0.41-0.05,0.271-0.356,0.278-0.594c0.014-0.203,0.027-0.404,0.04-0.605c0.259,0.041,0.301-0.099,0.259-0.309
	c0.013-0.285,0.026-0.571,0.039-0.855c0.249,0.035,0.314-0.085,0.26-0.307c0.004-0.102,0.007-0.204,0.01-0.306
	c0.011-0.305,0.021-0.61,0.032-0.914c0.259,0.046,0.311-0.084,0.256-0.303c0.035-0.305,0.033-0.609,0.02-0.915
	c0.008-0.489,0.016-0.978,0.023-1.467c0.094-0.012,0.211,0.023,0.225-0.135c0.066-0.789,0.067-1.577-0.001-2.366
	c-0.014-0.164-0.116-0.163-0.229-0.172c-0.007-0.409-0.014-0.818-0.021-1.227c-0.002-0.204-0.004-0.408-0.008-0.612
	c0.003-0.12-0.006-0.24,0.009-0.358c0.029-0.223-0.078-0.284-0.275-0.256c-0.01-0.302-0.02-0.604-0.029-0.906
	c-0.005-0.183-0.009-0.367-0.014-0.55c0.037-0.213,0.02-0.387-0.266-0.366c-0.008-0.182-0.016-0.364-0.023-0.545
	c-0.003-0.103-0.006-0.205-0.01-0.307c-0.044-0.224,0.172-0.566-0.276-0.604c-0.006-0.104-0.013-0.209-0.019-0.313
	c0.059-0.191-0.022-0.379-0.013-0.569c0.011-0.2-0.074-0.314-0.28-0.328l-0.006-0.01c-0.002-0.082-0.003-0.164-0.004-0.246
	c0.085-0.255-0.025-0.369-0.275-0.382c0-0.154-0.012-0.264-0.158-0.401c-0.178-0.167-0.119-0.486-0.164-0.74
	c0.012-0.176,0.054-0.375-0.241-0.314c-0.025-0.2-0.051-0.401-0.076-0.601c0.037-0.192,0.018-0.339-0.239-0.295
	c-0.02-0.106,0.023-0.222-0.049-0.319c0.038-0.198,0.013-0.342-0.244-0.296c-0.032-0.101,0.015-0.214-0.05-0.31
	c0.042-0.199-0.015-0.312-0.242-0.275C45.145,7.015,45.18,6.9,45.119,6.798c0.027-0.177,0.038-0.467-0.066-0.491
	c-0.248-0.055-0.204-0.221-0.247-0.365c0.05-0.229-0.051-0.318-0.272-0.297l-0.005-0.004c0.035-0.224-0.01-0.378-0.287-0.331
	c-0.007-0.093-0.013-0.187-0.02-0.28c0.003-0.155,0.06-0.32-0.21-0.33c-0.138-0.005-0.025-0.198-0.096-0.283
	c0.049-0.236-0.057-0.331-0.285-0.313c-0.004-0.099,0.021-0.201-0.031-0.295c0.068-0.249-0.089-0.292-0.278-0.304
	c-0.007-0.129,0.051-0.284-0.182-0.291c-0.17-0.004-0.059-0.183-0.12-0.262c0.035-0.228-0.065-0.336-0.293-0.334
	c0.008-0.013,0.006-0.024-0.008-0.032c0.077-0.261-0.097-0.31-0.29-0.341c0.023-0.091,0.037-0.226-0.059-0.233
	c-0.219-0.018-0.169-0.203-0.214-0.309c-0.06-0.14-0.031-0.3-0.271-0.299c-0.15,0-0.034-0.189-0.093-0.276
	c0.043-0.097-0.067-0.261,0.131-0.291c0.154-0.023,0.227,0.035,0.221,0.195c-0.003,0.082,0.095,0.063,0.126,0.096
	c0.192,0.209,0.419,0.33,0.705,0.333c-0.058,0.314,0.442,0.205,0.391,0.515c0.281,0.018,0.386,0.374,0.685,0.356
	c0.116-0.007,0.199,0.021,0.193,0.164c-0.002,0.034,0.03,0.101,0.043,0.1c0.308-0.029,0.479,0.234,0.727,0.328
	c0.082,0.03,0.124,0.062,0.118,0.144c-0.012,0.143,0.072,0.155,0.187,0.208c0.16,0.074,0.317,0.219,0.404,0.374
	c0.061,0.109,0.11,0.128,0.214,0.151c0.167,0.036,0.414-0.023,0.408,0.275c0.282-0.047,0.233,0.361,0.49,0.355
	c0.081-0.001,0.089,0.073,0.087,0.133c-0.004,0.12,0.054,0.163,0.166,0.157c0.078-0.004,0.148,0.017,0.142,0.113
	c-0.012,0.151,0.062,0.196,0.199,0.187c0.055-0.004,0.109,0.025,0.104,0.084C47.51,5.318,47.659,5.298,47.8,5.329
	c0.133,0.029,0.352-0.018,0.316,0.248c-0.008,0.058,0.055,0.084,0.108,0.079c0.15-0.015,0.194,0.062,0.188,0.197
	c0,0.026,0.03,0.078,0.035,0.077c0.284-0.078,0.227,0.369,0.489,0.318c-0.013,0.269,0.369,0.214,0.381,0.465
	c0.003,0.07,0.044,0.121,0.113,0.116c0.152-0.009,0.19,0.073,0.19,0.204c0,0.056,0.043,0.094,0.098,0.098
	c0.248,0.02,0.272,0.294,0.459,0.414c0.178,0.115,0.415,0.358,0.365,0.679C50.532,8.3,50.619,8.305,50.68,8.304
	c0.1-0.001,0.155,0.041,0.147,0.144c-0.012,0.139,0.063,0.175,0.185,0.168c0.075-0.003,0.114,0.041,0.109,0.113
	c-0.01,0.139,0.041,0.209,0.189,0.197c0.076-0.007,0.112,0.042,0.106,0.113c-0.011,0.142,0.045,0.208,0.191,0.196
	c0.076-0.006,0.11,0.044,0.104,0.115c-0.011,0.14,0.045,0.209,0.19,0.199c0.026-0.002,0.076,0.018,0.077,0.031
	c0.021,0.279,0.106,0.514,0.35,0.689c0.046,0.033,0.062,0.129,0.158,0.134c0.063,0.003,0.138,0.031,0.131,0.099
	c-0.025,0.247,0.155,0.21,0.298,0.23c0.011,0.088,0.021,0.176,0.031,0.264c-0.006,0.088-0.011,0.175-0.017,0.266
	c0.098,0.053,0.293-0.035,0.29,0.173c-0.003,0.22,0.146,0.166,0.269,0.17c0.004,0.014,0.013,0.019,0.026,0.015
	c0.008,0.175-0.003,0.368,0.271,0.304c0.019,0.095-0.026,0.202,0.054,0.286c0.018,0.104-0.099,0.27,0.095,0.292
	c0.153,0.017,0.148,0.097,0.188,0.208c0.052,0.146-0.018,0.422,0.292,0.377c-0.003,0.017,0.003,0.028,0.02,0.033
	c-0.051,0.231,0.037,0.337,0.277,0.304l0.003,0.006c-0.04,0.229,0.037,0.355,0.289,0.327c-0.01,0.097-0.023,0.193,0.029,0.284
	c-0.067,0.249,0.062,0.32,0.281,0.31c0.005,0.08,0.01,0.16,0.015,0.24c-0.03,0.219,0.038,0.349,0.286,0.317
	c0.008,0.097,0.016,0.194,0.023,0.291c-0.042,0.229,0.061,0.326,0.284,0.311c0.009,0.099,0.019,0.199,0.026,0.298
	C55.902,16.041,56.021,16.12,56.229,16.117z"/>
</svg>
